<?xml version="1.0" encoding="UTF-8" standalone="no"?>
<!-- Created with Inkscape (http://www.inkscape.org/) -->

<svg
   width="85.4571mm"
   height="62.388641mm"
   viewBox="0 0 85.4571 62.388641"
   version="1.1"
   id="svg1"
   xml:space="preserve"
   xmlns="http://www.w3.org/2000/svg"
   xmlns:svg="http://www.w3.org/2000/svg"><defs
     id="defs1" /><g
     id="layer10"
     transform="translate(99.927539,-158.32161)"><g
       id="g153"
       style="fill:#e8e8e3;fill-opacity:1;stroke:#1d1d1d;stroke-width:1.01995;stroke-dasharray:none;stroke-opacity:1"
       transform="matrix(3.2456906,0,0,2.6654837,-309.25953,-302.40269)"><path
         style="opacity:1;fill:#e8e8e3;fill-opacity:1;stroke:#1d1d1d;stroke-width:1.01995;stroke-linecap:round;stroke-linejoin:round;stroke-dasharray:none;stroke-opacity:1;paint-order:normal"
         d="m 70.116798,181.23348 c -4.806409,-2.63724 2.488368,-8.41733 5.572441,-5.1296 0.944703,-3.67672 7.122074,-3.37735 7.934268,-0.77498 3.584736,-1.76039 9.466094,4.44283 4.465333,6.31051 5.487337,2.8621 -0.493297,9.62452 -3.801068,6.27361 -0.594104,3.91497 -9.897974,3.22027 -9.336604,-1.07021 -3.658867,2.14571 -9.53708,-1.90113 -4.83437,-5.60933 z"
         id="path32" /><path
         style="fill:#e8e8e3;fill-opacity:1;stroke:#1d1d1d;stroke-width:2;stroke-linecap:round;stroke-linejoin:round;stroke-dasharray:none;stroke-opacity:1"
         id="path152-7"
         d="m -81.065347,204.70079 a 4.6990523,4.5815525 0 0 1 -1.127065,6.35282 4.6990523,4.5815525 0 0 1 -6.526576,-1.03596 4.6990523,4.5815525 0 0 1 0.997891,-6.37332 4.6990523,4.5815525 0 0 1 6.546326,0.90982"
         transform="matrix(0.30810083,0,0,0.37516643,95.283115,113.45133)" /><path
         style="fill:#e8e8e3;fill-opacity:1;stroke:#1d1d1d;stroke-width:1.5;stroke-linecap:round;stroke-linejoin:round;stroke-dasharray:none;stroke-opacity:1"
         id="path151-4"
         d="m -94.841866,216.17338 a 2.3833888,2.4121695 0 0 1 -0.571654,3.34473 2.3833888,2.4121695 0 0 1 -3.31032,-0.54543 2.3833888,2.4121695 0 0 1 0.506136,-3.35553 2.3833888,2.4121695 0 0 1 3.320338,0.47902"
         transform="matrix(0.30810083,0,0,0.37516643,95.283115,113.45133)" /></g></g></svg>
