<?xml version="1.0" encoding="UTF-8" standalone="no"?>
<!-- Created with Inkscape (http://www.inkscape.org/) -->

<svg
   width="319.43347mm"
   height="68.870941mm"
   viewBox="0 0 319.43347 68.870941"
   version="1.1"
   id="svg1"
   xml:space="preserve"
   xmlns="http://www.w3.org/2000/svg"
   xmlns:svg="http://www.w3.org/2000/svg"><defs
     id="defs1" /><g
     id="layer10"
     transform="translate(-236.90192,-195.72631)"><g
       id="g151"><g
         id="g149"><path
           style="opacity:1;fill:none;fill-opacity:1;stroke:#e5e5e5;stroke-width:5;stroke-linecap:round;stroke-linejoin:round;stroke-dasharray:none;stroke-opacity:1;paint-order:normal"
           d="m 264.28783,235.27045 c 25.74198,0.77031 51.01506,2.00951 80.16313,-0.62627 17.73806,-1.30862 28.50426,-10.08571 41.54289,-15.86562 18.30139,18.70915 41.74779,29.02968 69.09895,32.98378 l 98.7426,-1.04379"
           id="path40" /><path
           style="fill:none;stroke:#e5e5e5;stroke-width:4;stroke-linecap:round;stroke-linejoin:round;stroke-dasharray:none"
           d="m 387.03763,219.19607 c -5.50958,-6.55045 -9.72494,-14.21022 -20.4583,-16.28314"
           id="path1" /><path
           style="fill:none;stroke:#e5e5e5;stroke-width:4;stroke-linecap:round;stroke-linejoin:round;stroke-dasharray:none"
           d="m 264.08957,234.99621 c -6.56143,6.02156 -10.78033,13.13631 -14.41481,20.52378"
           id="path2" /><path
           style="fill:none;stroke:#e5e5e5;stroke-width:3;stroke-linecap:round;stroke-linejoin:round;stroke-dasharray:none"
           d="m 265.13335,235.18615 c -8.03806,-4.28433 -6.6286,-2.20736 -13.72266,-10.83407"
           id="path3" /><path
           style="fill:none;stroke:#e5e5e5;stroke-width:4;stroke-linecap:round;stroke-linejoin:round;stroke-dasharray:none"
           d="m 422.58115,243.47968 c -2.6475,8.52279 -10.77483,12.02241 -20.45539,14.09823"
           id="path4" /><path
           style="fill:none;stroke:#e5e5e5;stroke-width:3;stroke-linecap:round;stroke-linejoin:round;stroke-dasharray:none"
           d="m 379.67213,208.19085 c 3.22335,-2.73273 5.74708,-3.56653 7.5927,-2.55972"
           id="path5" /><path
           style="fill:none;stroke:#e5e5e5;stroke-width:3;stroke-linecap:round;stroke-linejoin:round;stroke-dasharray:none"
           d="m 255.32172,245.84728 c 1.86193,3.37264 3.46058,6.87691 7.59921,9.11119"
           id="path6" /></g><g
         id="g150"><g
           id="g39"
           transform="matrix(-0.78856835,-0.03067526,0.03085846,-0.78388672,497.34832,505.58568)"><path
             style="fill:#ffd046;fill-opacity:1;stroke:#e5e5e5;stroke-width:0.432695;stroke-linecap:round;stroke-linejoin:round;stroke-dasharray:none"
             id="path7"
             d="m 312.93114,300.60916 a 2.4982471,5.1120358 0 0 1 -2.47815,5.11187 2.4982471,5.1120358 0 0 1 -2.51802,-5.02962 2.4982471,5.1120358 0 0 1 2.43763,-5.1928 2.4982471,5.1120358 0 0 1 2.55725,4.94608" /><path
             style="fill:none;stroke:#e5e5e5;stroke-width:0.302886;stroke-linecap:round;stroke-linejoin:round;stroke-dasharray:none"
             d="m 310.42249,295.5126 -0.0165,13.19246"
             id="path8" /><path
             style="fill:none;stroke:#e5e5e5;stroke-width:0.216347;stroke-linecap:round;stroke-linejoin:round;stroke-dasharray:none"
             d="m 308.68908,297.15227 1.73341,1.03346 1.85485,-1.03346"
             id="path9" /><path
             style="fill:none;stroke:#e5e5e5;stroke-width:0.216347;stroke-linecap:round;stroke-linejoin:round;stroke-dasharray:none"
             d="m 308.01559,299.53096 2.40138,1.30481 2.42345,-1.29326"
             id="path23" /><path
             style="fill:none;stroke:#e5e5e5;stroke-width:0.216347;stroke-linecap:round;stroke-linejoin:round;stroke-dasharray:none"
             d="m 308.04871,301.61519 2.26337,1.22398 2.52834,-1.32213"
             id="path28" /><path
             style="fill:none;stroke:#e5e5e5;stroke-width:0.216347;stroke-linecap:round;stroke-linejoin:round;stroke-dasharray:none"
             d="m 308.47931,303.43385 1.92662,1.01614 2.10327,-0.92377"
             id="path33" /></g><g
           id="g46"
           transform="matrix(-0.61577278,0.12401962,-0.1291662,-0.59123753,480.57777,400.23919)"><path
             style="fill:#ffd046;fill-opacity:1;stroke:#e5e5e5;stroke-width:0.432695;stroke-linecap:round;stroke-linejoin:round;stroke-dasharray:none"
             id="path41"
             d="m 312.93114,300.60916 a 2.4982471,5.1120358 0 0 1 -2.47815,5.11187 2.4982471,5.1120358 0 0 1 -2.51802,-5.02962 2.4982471,5.1120358 0 0 1 2.43763,-5.1928 2.4982471,5.1120358 0 0 1 2.55725,4.94608" /><path
             style="fill:none;stroke:#e5e5e5;stroke-width:0.302886;stroke-linecap:round;stroke-linejoin:round;stroke-dasharray:none"
             d="m 310.42249,295.5126 -0.0165,13.19246"
             id="path42" /><path
             style="fill:none;stroke:#e5e5e5;stroke-width:0.216347;stroke-linecap:round;stroke-linejoin:round;stroke-dasharray:none"
             d="m 308.68908,297.15227 1.73341,1.03346 1.85485,-1.03346"
             id="path43" /><path
             style="fill:none;stroke:#e5e5e5;stroke-width:0.216347;stroke-linecap:round;stroke-linejoin:round;stroke-dasharray:none"
             d="m 308.01559,299.53096 2.40138,1.30481 2.42345,-1.29326"
             id="path44" /><path
             style="fill:none;stroke:#e5e5e5;stroke-width:0.216347;stroke-linecap:round;stroke-linejoin:round;stroke-dasharray:none"
             d="m 308.04871,301.61519 2.26337,1.22398 2.52834,-1.32213"
             id="path45" /><path
             style="fill:none;stroke:#e5e5e5;stroke-width:0.216347;stroke-linecap:round;stroke-linejoin:round;stroke-dasharray:none"
             d="m 308.47931,303.43385 1.92662,1.01614 2.10327,-0.92377"
             id="path46" /></g><g
           id="g52"
           transform="matrix(0.02823519,-0.97203786,0.93753453,0.02927431,-48.698517,549.07377)"><path
             style="fill:#ffd046;fill-opacity:1;stroke:#e5e5e5;stroke-width:0.432695;stroke-linecap:round;stroke-linejoin:round;stroke-dasharray:none"
             id="path47"
             d="m 312.93114,300.60916 a 2.4982471,5.1120358 0 0 1 -2.47815,5.11187 2.4982471,5.1120358 0 0 1 -2.51802,-5.02962 2.4982471,5.1120358 0 0 1 2.43763,-5.1928 2.4982471,5.1120358 0 0 1 2.55725,4.94608" /><path
             style="fill:none;stroke:#e5e5e5;stroke-width:0.302886;stroke-linecap:round;stroke-linejoin:round;stroke-dasharray:none"
             d="m 310.42249,295.5126 -0.0165,13.19246"
             id="path48" /><path
             style="fill:none;stroke:#e5e5e5;stroke-width:0.216347;stroke-linecap:round;stroke-linejoin:round;stroke-dasharray:none"
             d="m 308.68908,297.15227 1.73341,1.03346 1.85485,-1.03346"
             id="path49" /><path
             style="fill:none;stroke:#e5e5e5;stroke-width:0.216347;stroke-linecap:round;stroke-linejoin:round;stroke-dasharray:none"
             d="m 308.01559,299.53096 2.40138,1.30481 2.42345,-1.29326"
             id="path50" /><path
             style="fill:none;stroke:#e5e5e5;stroke-width:0.216347;stroke-linecap:round;stroke-linejoin:round;stroke-dasharray:none"
             d="m 308.04871,301.61519 2.26337,1.22398 2.52834,-1.32213"
             id="path51" /><path
             style="fill:none;stroke:#e5e5e5;stroke-width:0.216347;stroke-linecap:round;stroke-linejoin:round;stroke-dasharray:none"
             d="m 308.47931,303.43385 1.92662,1.01614 2.10327,-0.92377"
             id="path52" /></g><g
           id="g58"
           transform="matrix(-0.62387604,-0.32972457,0.28547999,-0.52319791,508.01449,521.18482)"><path
             style="fill:#ffd046;fill-opacity:1;stroke:#e5e5e5;stroke-width:0.432695;stroke-linecap:round;stroke-linejoin:round;stroke-dasharray:none"
             id="path53"
             d="m 312.93114,300.60916 a 2.4982471,5.1120358 0 0 1 -2.47815,5.11187 2.4982471,5.1120358 0 0 1 -2.51802,-5.02962 2.4982471,5.1120358 0 0 1 2.43763,-5.1928 2.4982471,5.1120358 0 0 1 2.55725,4.94608" /><path
             style="fill:none;stroke:#e5e5e5;stroke-width:0.302886;stroke-linecap:round;stroke-linejoin:round;stroke-dasharray:none"
             d="m 310.42249,295.5126 -0.0165,13.19246"
             id="path54" /><path
             style="fill:none;stroke:#e5e5e5;stroke-width:0.216347;stroke-linecap:round;stroke-linejoin:round;stroke-dasharray:none"
             d="m 308.68908,297.15227 1.73341,1.03346 1.85485,-1.03346"
             id="path55" /><path
             style="fill:none;stroke:#e5e5e5;stroke-width:0.216347;stroke-linecap:round;stroke-linejoin:round;stroke-dasharray:none"
             d="m 308.01559,299.53096 2.40138,1.30481 2.42345,-1.29326"
             id="path56" /><path
             style="fill:none;stroke:#e5e5e5;stroke-width:0.216347;stroke-linecap:round;stroke-linejoin:round;stroke-dasharray:none"
             d="m 308.04871,301.61519 2.26337,1.22398 2.52834,-1.32213"
             id="path57" /><path
             style="fill:none;stroke:#e5e5e5;stroke-width:0.216347;stroke-linecap:round;stroke-linejoin:round;stroke-dasharray:none"
             d="m 308.47931,303.43385 1.92662,1.01614 2.10327,-0.92377"
             id="path58" /></g><g
           id="g64"
           transform="rotate(-86.450198,329.43927,233.75415)"><path
             style="fill:#ffd046;fill-opacity:1;stroke:#e5e5e5;stroke-width:0.432695;stroke-linecap:round;stroke-linejoin:round;stroke-dasharray:none"
             id="path59"
             d="m 312.93114,300.60916 a 2.4982471,5.1120358 0 0 1 -2.47815,5.11187 2.4982471,5.1120358 0 0 1 -2.51802,-5.02962 2.4982471,5.1120358 0 0 1 2.43763,-5.1928 2.4982471,5.1120358 0 0 1 2.55725,4.94608" /><path
             style="fill:none;stroke:#e5e5e5;stroke-width:0.302886;stroke-linecap:round;stroke-linejoin:round;stroke-dasharray:none"
             d="m 310.42249,295.5126 -0.0165,13.19246"
             id="path60" /><path
             style="fill:none;stroke:#e5e5e5;stroke-width:0.216347;stroke-linecap:round;stroke-linejoin:round;stroke-dasharray:none"
             d="m 308.68908,297.15227 1.73341,1.03346 1.85485,-1.03346"
             id="path61" /><path
             style="fill:none;stroke:#e5e5e5;stroke-width:0.216347;stroke-linecap:round;stroke-linejoin:round;stroke-dasharray:none"
             d="m 308.01559,299.53096 2.40138,1.30481 2.42345,-1.29326"
             id="path62" /><path
             style="fill:none;stroke:#e5e5e5;stroke-width:0.216347;stroke-linecap:round;stroke-linejoin:round;stroke-dasharray:none"
             d="m 308.04871,301.61519 2.26337,1.22398 2.52834,-1.32213"
             id="path63" /><path
             style="fill:none;stroke:#e5e5e5;stroke-width:0.216347;stroke-linecap:round;stroke-linejoin:round;stroke-dasharray:none"
             d="m 308.47931,303.43385 1.92662,1.01614 2.10327,-0.92377"
             id="path64" /></g><g
           id="g70"
           transform="matrix(0.88754565,0.16888004,-0.19131246,0.78347612,170.43258,-88.018437)"><path
             style="fill:#ffd046;fill-opacity:1;stroke:#e5e5e5;stroke-width:0.432695;stroke-linecap:round;stroke-linejoin:round;stroke-dasharray:none"
             id="path65"
             d="m 312.93114,300.60916 a 2.4982471,5.1120358 0 0 1 -2.47815,5.11187 2.4982471,5.1120358 0 0 1 -2.51802,-5.02962 2.4982471,5.1120358 0 0 1 2.43763,-5.1928 2.4982471,5.1120358 0 0 1 2.55725,4.94608" /><path
             style="fill:none;stroke:#e5e5e5;stroke-width:0.302886;stroke-linecap:round;stroke-linejoin:round;stroke-dasharray:none"
             d="m 310.42249,295.5126 -0.0165,13.19246"
             id="path66" /><path
             style="fill:none;stroke:#e5e5e5;stroke-width:0.216347;stroke-linecap:round;stroke-linejoin:round;stroke-dasharray:none"
             d="m 308.68908,297.15227 1.73341,1.03346 1.85485,-1.03346"
             id="path67" /><path
             style="fill:none;stroke:#e5e5e5;stroke-width:0.216347;stroke-linecap:round;stroke-linejoin:round;stroke-dasharray:none"
             d="m 308.01559,299.53096 2.40138,1.30481 2.42345,-1.29326"
             id="path68" /><path
             style="fill:none;stroke:#e5e5e5;stroke-width:0.216347;stroke-linecap:round;stroke-linejoin:round;stroke-dasharray:none"
             d="m 308.04871,301.61519 2.26337,1.22398 2.52834,-1.32213"
             id="path69" /><path
             style="fill:none;stroke:#e5e5e5;stroke-width:0.216347;stroke-linecap:round;stroke-linejoin:round;stroke-dasharray:none"
             d="m 308.47931,303.43385 1.92662,1.01614 2.10327,-0.92377"
             id="path70" /></g><g
           id="g76"
           transform="matrix(0.70917043,-0.08545477,0.15652488,0.38717165,100.04686,108.8463)"><path
             style="fill:#ffd046;fill-opacity:1;stroke:#e5e5e5;stroke-width:0.432695;stroke-linecap:round;stroke-linejoin:round;stroke-dasharray:none"
             id="path71"
             d="m 312.93114,300.60916 a 2.4982471,5.1120358 0 0 1 -2.47815,5.11187 2.4982471,5.1120358 0 0 1 -2.51802,-5.02962 2.4982471,5.1120358 0 0 1 2.43763,-5.1928 2.4982471,5.1120358 0 0 1 2.55725,4.94608" /><path
             style="fill:none;stroke:#e5e5e5;stroke-width:0.302886;stroke-linecap:round;stroke-linejoin:round;stroke-dasharray:none"
             d="m 310.42249,295.5126 -0.0165,13.19246"
             id="path72" /><path
             style="fill:none;stroke:#e5e5e5;stroke-width:0.216347;stroke-linecap:round;stroke-linejoin:round;stroke-dasharray:none"
             d="m 308.68908,297.15227 1.73341,1.03346 1.85485,-1.03346"
             id="path73" /><path
             style="fill:none;stroke:#e5e5e5;stroke-width:0.216347;stroke-linecap:round;stroke-linejoin:round;stroke-dasharray:none"
             d="m 308.01559,299.53096 2.40138,1.30481 2.42345,-1.29326"
             id="path74" /><path
             style="fill:none;stroke:#e5e5e5;stroke-width:0.216347;stroke-linecap:round;stroke-linejoin:round;stroke-dasharray:none"
             d="m 308.04871,301.61519 2.26337,1.22398 2.52834,-1.32213"
             id="path75" /><path
             style="fill:none;stroke:#e5e5e5;stroke-width:0.216347;stroke-linecap:round;stroke-linejoin:round;stroke-dasharray:none"
             d="m 308.47931,303.43385 1.92662,1.01614 2.10327,-0.92377"
             id="path76" /></g><g
           id="g82"
           transform="rotate(-146.01444,325.05007,246.95281)"><path
             style="fill:#ffd046;fill-opacity:1;stroke:#e5e5e5;stroke-width:0.432695;stroke-linecap:round;stroke-linejoin:round;stroke-dasharray:none"
             id="path77"
             d="m 312.93114,300.60916 a 2.4982471,5.1120358 0 0 1 -2.47815,5.11187 2.4982471,5.1120358 0 0 1 -2.51802,-5.02962 2.4982471,5.1120358 0 0 1 2.43763,-5.1928 2.4982471,5.1120358 0 0 1 2.55725,4.94608" /><path
             style="fill:none;stroke:#e5e5e5;stroke-width:0.302886;stroke-linecap:round;stroke-linejoin:round;stroke-dasharray:none"
             d="m 310.42249,295.5126 -0.0165,13.19246"
             id="path78" /><path
             style="fill:none;stroke:#e5e5e5;stroke-width:0.216347;stroke-linecap:round;stroke-linejoin:round;stroke-dasharray:none"
             d="m 308.68908,297.15227 1.73341,1.03346 1.85485,-1.03346"
             id="path79" /><path
             style="fill:none;stroke:#e5e5e5;stroke-width:0.216347;stroke-linecap:round;stroke-linejoin:round;stroke-dasharray:none"
             d="m 308.01559,299.53096 2.40138,1.30481 2.42345,-1.29326"
             id="path80" /><path
             style="fill:none;stroke:#e5e5e5;stroke-width:0.216347;stroke-linecap:round;stroke-linejoin:round;stroke-dasharray:none"
             d="m 308.04871,301.61519 2.26337,1.22398 2.52834,-1.32213"
             id="path81" /><path
             style="fill:none;stroke:#e5e5e5;stroke-width:0.216347;stroke-linecap:round;stroke-linejoin:round;stroke-dasharray:none"
             d="m 308.47931,303.43385 1.92662,1.01614 2.10327,-0.92377"
             id="path82" /></g><g
           id="g88"
           transform="matrix(0.90890567,-0.06791036,0.09044065,0.6824819,-58.473202,34.543961)"><path
             style="fill:#ffd046;fill-opacity:1;stroke:#e5e5e5;stroke-width:0.432695;stroke-linecap:round;stroke-linejoin:round;stroke-dasharray:none"
             id="path83"
             d="m 312.93114,300.60916 a 2.4982471,5.1120358 0 0 1 -2.47815,5.11187 2.4982471,5.1120358 0 0 1 -2.51802,-5.02962 2.4982471,5.1120358 0 0 1 2.43763,-5.1928 2.4982471,5.1120358 0 0 1 2.55725,4.94608" /><path
             style="fill:none;stroke:#e5e5e5;stroke-width:0.302886;stroke-linecap:round;stroke-linejoin:round;stroke-dasharray:none"
             d="m 310.42249,295.5126 -0.0165,13.19246"
             id="path84" /><path
             style="fill:none;stroke:#e5e5e5;stroke-width:0.216347;stroke-linecap:round;stroke-linejoin:round;stroke-dasharray:none"
             d="m 308.68908,297.15227 1.73341,1.03346 1.85485,-1.03346"
             id="path85" /><path
             style="fill:none;stroke:#e5e5e5;stroke-width:0.216347;stroke-linecap:round;stroke-linejoin:round;stroke-dasharray:none"
             d="m 308.01559,299.53096 2.40138,1.30481 2.42345,-1.29326"
             id="path86" /><path
             style="fill:none;stroke:#e5e5e5;stroke-width:0.216347;stroke-linecap:round;stroke-linejoin:round;stroke-dasharray:none"
             d="m 308.04871,301.61519 2.26337,1.22398 2.52834,-1.32213"
             id="path87" /><path
             style="fill:none;stroke:#e5e5e5;stroke-width:0.216347;stroke-linecap:round;stroke-linejoin:round;stroke-dasharray:none"
             d="m 308.47931,303.43385 1.92662,1.01614 2.10327,-0.92377"
             id="path88" /></g><g
           id="g94"
           transform="matrix(-0.42700327,0.28541775,-0.28258775,-0.43127952,642.41031,289.71835)"><path
             style="fill:#ffd046;fill-opacity:1;stroke:#e5e5e5;stroke-width:0.432695;stroke-linecap:round;stroke-linejoin:round;stroke-dasharray:none"
             id="path89"
             d="m 312.93114,300.60916 a 2.4982471,5.1120358 0 0 1 -2.47815,5.11187 2.4982471,5.1120358 0 0 1 -2.51802,-5.02962 2.4982471,5.1120358 0 0 1 2.43763,-5.1928 2.4982471,5.1120358 0 0 1 2.55725,4.94608" /><path
             style="fill:none;stroke:#e5e5e5;stroke-width:0.302886;stroke-linecap:round;stroke-linejoin:round;stroke-dasharray:none"
             d="m 310.42249,295.5126 -0.0165,13.19246"
             id="path90" /><path
             style="fill:none;stroke:#e5e5e5;stroke-width:0.216347;stroke-linecap:round;stroke-linejoin:round;stroke-dasharray:none"
             d="m 308.68908,297.15227 1.73341,1.03346 1.85485,-1.03346"
             id="path91" /><path
             style="fill:none;stroke:#e5e5e5;stroke-width:0.216347;stroke-linecap:round;stroke-linejoin:round;stroke-dasharray:none"
             d="m 308.01559,299.53096 2.40138,1.30481 2.42345,-1.29326"
             id="path92" /><path
             style="fill:none;stroke:#e5e5e5;stroke-width:0.216347;stroke-linecap:round;stroke-linejoin:round;stroke-dasharray:none"
             d="m 308.04871,301.61519 2.26337,1.22398 2.52834,-1.32213"
             id="path93" /><path
             style="fill:none;stroke:#e5e5e5;stroke-width:0.216347;stroke-linecap:round;stroke-linejoin:round;stroke-dasharray:none"
             d="m 308.47931,303.43385 1.92662,1.01614 2.10327,-0.92377"
             id="path94" /></g><g
           id="g100"
           transform="matrix(-0.68926922,-0.4169087,0.53306704,-0.53907353,301.28541,520.12281)"><path
             style="fill:#ffd046;fill-opacity:1;stroke:#e5e5e5;stroke-width:0.432695;stroke-linecap:round;stroke-linejoin:round;stroke-dasharray:none"
             id="path95"
             d="m 312.93114,300.60916 a 2.4982471,5.1120358 0 0 1 -2.47815,5.11187 2.4982471,5.1120358 0 0 1 -2.51802,-5.02962 2.4982471,5.1120358 0 0 1 2.43763,-5.1928 2.4982471,5.1120358 0 0 1 2.55725,4.94608" /><path
             style="fill:none;stroke:#e5e5e5;stroke-width:0.302886;stroke-linecap:round;stroke-linejoin:round;stroke-dasharray:none"
             d="m 310.42249,295.5126 -0.0165,13.19246"
             id="path96" /><path
             style="fill:none;stroke:#e5e5e5;stroke-width:0.216347;stroke-linecap:round;stroke-linejoin:round;stroke-dasharray:none"
             d="m 308.68908,297.15227 1.73341,1.03346 1.85485,-1.03346"
             id="path97" /><path
             style="fill:none;stroke:#e5e5e5;stroke-width:0.216347;stroke-linecap:round;stroke-linejoin:round;stroke-dasharray:none"
             d="m 308.01559,299.53096 2.40138,1.30481 2.42345,-1.29326"
             id="path98" /><path
             style="fill:none;stroke:#e5e5e5;stroke-width:0.216347;stroke-linecap:round;stroke-linejoin:round;stroke-dasharray:none"
             d="m 308.04871,301.61519 2.26337,1.22398 2.52834,-1.32213"
             id="path99" /><path
             style="fill:none;stroke:#e5e5e5;stroke-width:0.216347;stroke-linecap:round;stroke-linejoin:round;stroke-dasharray:none"
             d="m 308.47931,303.43385 1.92662,1.01614 2.10327,-0.92377"
             id="path100" /></g><g
           id="g106"
           transform="rotate(112.84812,303.79915,265.12876)"><path
             style="fill:#ffd046;fill-opacity:1;stroke:#e5e5e5;stroke-width:0.432695;stroke-linecap:round;stroke-linejoin:round;stroke-dasharray:none"
             id="path101"
             d="m 312.93114,300.60916 a 2.4982471,5.1120358 0 0 1 -2.47815,5.11187 2.4982471,5.1120358 0 0 1 -2.51802,-5.02962 2.4982471,5.1120358 0 0 1 2.43763,-5.1928 2.4982471,5.1120358 0 0 1 2.55725,4.94608" /><path
             style="fill:none;stroke:#e5e5e5;stroke-width:0.302886;stroke-linecap:round;stroke-linejoin:round;stroke-dasharray:none"
             d="m 310.42249,295.5126 -0.0165,13.19246"
             id="path102" /><path
             style="fill:none;stroke:#e5e5e5;stroke-width:0.216347;stroke-linecap:round;stroke-linejoin:round;stroke-dasharray:none"
             d="m 308.68908,297.15227 1.73341,1.03346 1.85485,-1.03346"
             id="path103" /><path
             style="fill:none;stroke:#e5e5e5;stroke-width:0.216347;stroke-linecap:round;stroke-linejoin:round;stroke-dasharray:none"
             d="m 308.01559,299.53096 2.40138,1.30481 2.42345,-1.29326"
             id="path104" /><path
             style="fill:none;stroke:#e5e5e5;stroke-width:0.216347;stroke-linecap:round;stroke-linejoin:round;stroke-dasharray:none"
             d="m 308.04871,301.61519 2.26337,1.22398 2.52834,-1.32213"
             id="path105" /><path
             style="fill:none;stroke:#e5e5e5;stroke-width:0.216347;stroke-linecap:round;stroke-linejoin:round;stroke-dasharray:none"
             d="m 308.47931,303.43385 1.92662,1.01614 2.10327,-0.92377"
             id="path106" /></g><g
           id="g112"
           transform="matrix(-0.24980029,0.77919729,-0.73862117,-0.26352305,692.75216,45.423292)"><path
             style="fill:#ffd046;fill-opacity:1;stroke:#e5e5e5;stroke-width:0.432695;stroke-linecap:round;stroke-linejoin:round;stroke-dasharray:none"
             id="path107"
             d="m 312.93114,300.60916 a 2.4982471,5.1120358 0 0 1 -2.47815,5.11187 2.4982471,5.1120358 0 0 1 -2.51802,-5.02962 2.4982471,5.1120358 0 0 1 2.43763,-5.1928 2.4982471,5.1120358 0 0 1 2.55725,4.94608" /><path
             style="fill:none;stroke:#e5e5e5;stroke-width:0.302886;stroke-linecap:round;stroke-linejoin:round;stroke-dasharray:none"
             d="m 310.42249,295.5126 -0.0165,13.19246"
             id="path108" /><path
             style="fill:none;stroke:#e5e5e5;stroke-width:0.216347;stroke-linecap:round;stroke-linejoin:round;stroke-dasharray:none"
             d="m 308.68908,297.15227 1.73341,1.03346 1.85485,-1.03346"
             id="path109" /><path
             style="fill:none;stroke:#e5e5e5;stroke-width:0.216347;stroke-linecap:round;stroke-linejoin:round;stroke-dasharray:none"
             d="m 308.01559,299.53096 2.40138,1.30481 2.42345,-1.29326"
             id="path110" /><path
             style="fill:none;stroke:#e5e5e5;stroke-width:0.216347;stroke-linecap:round;stroke-linejoin:round;stroke-dasharray:none"
             d="m 308.04871,301.61519 2.26337,1.22398 2.52834,-1.32213"
             id="path111" /><path
             style="fill:none;stroke:#e5e5e5;stroke-width:0.216347;stroke-linecap:round;stroke-linejoin:round;stroke-dasharray:none"
             d="m 308.47931,303.43385 1.92662,1.01614 2.10327,-0.92377"
             id="path112" /></g><g
           id="g118"
           transform="matrix(0.50323273,-0.51210452,0.67539742,0.38156462,2.4351485,245.51107)"><path
             style="fill:#ffd046;fill-opacity:1;stroke:#e5e5e5;stroke-width:0.432695;stroke-linecap:round;stroke-linejoin:round;stroke-dasharray:none"
             id="path113"
             d="m 312.93114,300.60916 a 2.4982471,5.1120358 0 0 1 -2.47815,5.11187 2.4982471,5.1120358 0 0 1 -2.51802,-5.02962 2.4982471,5.1120358 0 0 1 2.43763,-5.1928 2.4982471,5.1120358 0 0 1 2.55725,4.94608" /><path
             style="fill:none;stroke:#e5e5e5;stroke-width:0.302886;stroke-linecap:round;stroke-linejoin:round;stroke-dasharray:none"
             d="m 310.42249,295.5126 -0.0165,13.19246"
             id="path114" /><path
             style="fill:none;stroke:#e5e5e5;stroke-width:0.216347;stroke-linecap:round;stroke-linejoin:round;stroke-dasharray:none"
             d="m 308.68908,297.15227 1.73341,1.03346 1.85485,-1.03346"
             id="path115" /><path
             style="fill:none;stroke:#e5e5e5;stroke-width:0.216347;stroke-linecap:round;stroke-linejoin:round;stroke-dasharray:none"
             d="m 308.01559,299.53096 2.40138,1.30481 2.42345,-1.29326"
             id="path116" /><path
             style="fill:none;stroke:#e5e5e5;stroke-width:0.216347;stroke-linecap:round;stroke-linejoin:round;stroke-dasharray:none"
             d="m 308.04871,301.61519 2.26337,1.22398 2.52834,-1.32213"
             id="path117" /><path
             style="fill:none;stroke:#e5e5e5;stroke-width:0.216347;stroke-linecap:round;stroke-linejoin:round;stroke-dasharray:none"
             d="m 308.47931,303.43385 1.92662,1.01614 2.10327,-0.92377"
             id="path118" /></g><g
           id="g124"
           transform="matrix(-0.35137185,-0.54838177,0.50091546,-0.38466753,320.14138,492.50881)"><path
             style="fill:#ffd046;fill-opacity:1;stroke:#e5e5e5;stroke-width:0.432695;stroke-linecap:round;stroke-linejoin:round;stroke-dasharray:none"
             id="path119"
             d="m 312.93114,300.60916 a 2.4982471,5.1120358 0 0 1 -2.47815,5.11187 2.4982471,5.1120358 0 0 1 -2.51802,-5.02962 2.4982471,5.1120358 0 0 1 2.43763,-5.1928 2.4982471,5.1120358 0 0 1 2.55725,4.94608" /><path
             style="fill:none;stroke:#e5e5e5;stroke-width:0.302886;stroke-linecap:round;stroke-linejoin:round;stroke-dasharray:none"
             d="m 310.42249,295.5126 -0.0165,13.19246"
             id="path120" /><path
             style="fill:none;stroke:#e5e5e5;stroke-width:0.216347;stroke-linecap:round;stroke-linejoin:round;stroke-dasharray:none"
             d="m 308.68908,297.15227 1.73341,1.03346 1.85485,-1.03346"
             id="path121" /><path
             style="fill:none;stroke:#e5e5e5;stroke-width:0.216347;stroke-linecap:round;stroke-linejoin:round;stroke-dasharray:none"
             d="m 308.01559,299.53096 2.40138,1.30481 2.42345,-1.29326"
             id="path122" /><path
             style="fill:none;stroke:#e5e5e5;stroke-width:0.216347;stroke-linecap:round;stroke-linejoin:round;stroke-dasharray:none"
             d="m 308.04871,301.61519 2.26337,1.22398 2.52834,-1.32213"
             id="path123" /><path
             style="fill:none;stroke:#e5e5e5;stroke-width:0.216347;stroke-linecap:round;stroke-linejoin:round;stroke-dasharray:none"
             d="m 308.47931,303.43385 1.92662,1.01614 2.10327,-0.92377"
             id="path124" /></g><g
           id="g130"
           transform="matrix(0.23374129,0.65908982,-0.6132097,0.25122972,503.85971,-76.714647)"><path
             style="fill:#ffd046;fill-opacity:1;stroke:#e5e5e5;stroke-width:0.432695;stroke-linecap:round;stroke-linejoin:round;stroke-dasharray:none"
             id="path125"
             d="m 312.93114,300.60916 a 2.4982471,5.1120358 0 0 1 -2.47815,5.11187 2.4982471,5.1120358 0 0 1 -2.51802,-5.02962 2.4982471,5.1120358 0 0 1 2.43763,-5.1928 2.4982471,5.1120358 0 0 1 2.55725,4.94608" /><path
             style="fill:none;stroke:#e5e5e5;stroke-width:0.302886;stroke-linecap:round;stroke-linejoin:round;stroke-dasharray:none"
             d="m 310.42249,295.5126 -0.0165,13.19246"
             id="path126" /><path
             style="fill:none;stroke:#e5e5e5;stroke-width:0.216347;stroke-linecap:round;stroke-linejoin:round;stroke-dasharray:none"
             d="m 308.68908,297.15227 1.73341,1.03346 1.85485,-1.03346"
             id="path127" /><path
             style="fill:none;stroke:#e5e5e5;stroke-width:0.216347;stroke-linecap:round;stroke-linejoin:round;stroke-dasharray:none"
             d="m 308.01559,299.53096 2.40138,1.30481 2.42345,-1.29326"
             id="path128" /><path
             style="fill:none;stroke:#e5e5e5;stroke-width:0.216347;stroke-linecap:round;stroke-linejoin:round;stroke-dasharray:none"
             d="m 308.04871,301.61519 2.26337,1.22398 2.52834,-1.32213"
             id="path129" /><path
             style="fill:none;stroke:#e5e5e5;stroke-width:0.216347;stroke-linecap:round;stroke-linejoin:round;stroke-dasharray:none"
             d="m 308.47931,303.43385 1.92662,1.01614 2.10327,-0.92377"
             id="path130" /></g><g
           id="g136"
           transform="matrix(-0.29674099,0.35645376,-0.3124479,-0.30926965,452.21982,221.94958)"><path
             style="fill:#ffd046;fill-opacity:1;stroke:#e5e5e5;stroke-width:0.432695;stroke-linecap:round;stroke-linejoin:round;stroke-dasharray:none"
             id="path131"
             d="m 312.93114,300.60916 a 2.4982471,5.1120358 0 0 1 -2.47815,5.11187 2.4982471,5.1120358 0 0 1 -2.51802,-5.02962 2.4982471,5.1120358 0 0 1 2.43763,-5.1928 2.4982471,5.1120358 0 0 1 2.55725,4.94608" /><path
             style="fill:none;stroke:#e5e5e5;stroke-width:0.302886;stroke-linecap:round;stroke-linejoin:round;stroke-dasharray:none"
             d="m 310.42249,295.5126 -0.0165,13.19246"
             id="path132" /><path
             style="fill:none;stroke:#e5e5e5;stroke-width:0.216347;stroke-linecap:round;stroke-linejoin:round;stroke-dasharray:none"
             d="m 308.68908,297.15227 1.73341,1.03346 1.85485,-1.03346"
             id="path133" /><path
             style="fill:none;stroke:#e5e5e5;stroke-width:0.216347;stroke-linecap:round;stroke-linejoin:round;stroke-dasharray:none"
             d="m 308.01559,299.53096 2.40138,1.30481 2.42345,-1.29326"
             id="path134" /><path
             style="fill:none;stroke:#e5e5e5;stroke-width:0.216347;stroke-linecap:round;stroke-linejoin:round;stroke-dasharray:none"
             d="m 308.04871,301.61519 2.26337,1.22398 2.52834,-1.32213"
             id="path135" /><path
             style="fill:none;stroke:#e5e5e5;stroke-width:0.216347;stroke-linecap:round;stroke-linejoin:round;stroke-dasharray:none"
             d="m 308.47931,303.43385 1.92662,1.01614 2.10327,-0.92377"
             id="path136" /></g><g
           id="g136-4"
           transform="matrix(0.62128033,0.5655454,-0.58847956,0.60787975,245.66709,-133.21739)"><path
             style="fill:#ffd046;fill-opacity:1;stroke:#e5e5e5;stroke-width:0.432695;stroke-linecap:round;stroke-linejoin:round;stroke-dasharray:none"
             id="path131-7"
             d="m 312.93114,300.60916 a 2.4982471,5.1120358 0 0 1 -2.47815,5.11187 2.4982471,5.1120358 0 0 1 -2.51802,-5.02962 2.4982471,5.1120358 0 0 1 2.43763,-5.1928 2.4982471,5.1120358 0 0 1 2.55725,4.94608" /><path
             style="fill:none;stroke:#e5e5e5;stroke-width:0.302886;stroke-linecap:round;stroke-linejoin:round;stroke-dasharray:none"
             d="m 310.42249,295.5126 -0.0165,13.19246"
             id="path132-4" /><path
             style="fill:none;stroke:#e5e5e5;stroke-width:0.216347;stroke-linecap:round;stroke-linejoin:round;stroke-dasharray:none"
             d="m 308.68908,297.15227 1.73341,1.03346 1.85485,-1.03346"
             id="path133-4" /><path
             style="fill:none;stroke:#e5e5e5;stroke-width:0.216347;stroke-linecap:round;stroke-linejoin:round;stroke-dasharray:none"
             d="m 308.01559,299.53096 2.40138,1.30481 2.42345,-1.29326"
             id="path134-3" /><path
             style="fill:none;stroke:#e5e5e5;stroke-width:0.216347;stroke-linecap:round;stroke-linejoin:round;stroke-dasharray:none"
             d="m 308.04871,301.61519 2.26337,1.22398 2.52834,-1.32213"
             id="path135-0" /><path
             style="fill:none;stroke:#e5e5e5;stroke-width:0.216347;stroke-linecap:round;stroke-linejoin:round;stroke-dasharray:none"
             d="m 308.47931,303.43385 1.92662,1.01614 2.10327,-0.92377"
             id="path136-7" /></g><g
           id="g142"
           transform="matrix(0.3978124,-0.75671648,0.72485981,0.41529575,-89.263333,348.69204)"><path
             style="fill:#ffd046;fill-opacity:1;stroke:#e5e5e5;stroke-width:0.432695;stroke-linecap:round;stroke-linejoin:round;stroke-dasharray:none"
             id="path137"
             d="m 312.93114,300.60916 a 2.4982471,5.1120358 0 0 1 -2.47815,5.11187 2.4982471,5.1120358 0 0 1 -2.51802,-5.02962 2.4982471,5.1120358 0 0 1 2.43763,-5.1928 2.4982471,5.1120358 0 0 1 2.55725,4.94608" /><path
             style="fill:none;stroke:#e5e5e5;stroke-width:0.302886;stroke-linecap:round;stroke-linejoin:round;stroke-dasharray:none"
             d="m 310.42249,295.5126 -0.0165,13.19246"
             id="path138" /><path
             style="fill:none;stroke:#e5e5e5;stroke-width:0.216347;stroke-linecap:round;stroke-linejoin:round;stroke-dasharray:none"
             d="m 308.68908,297.15227 1.73341,1.03346 1.85485,-1.03346"
             id="path139" /><path
             style="fill:none;stroke:#e5e5e5;stroke-width:0.216347;stroke-linecap:round;stroke-linejoin:round;stroke-dasharray:none"
             d="m 308.01559,299.53096 2.40138,1.30481 2.42345,-1.29326"
             id="path140" /><path
             style="fill:none;stroke:#e5e5e5;stroke-width:0.216347;stroke-linecap:round;stroke-linejoin:round;stroke-dasharray:none"
             d="m 308.04871,301.61519 2.26337,1.22398 2.52834,-1.32213"
             id="path141" /><path
             style="fill:none;stroke:#e5e5e5;stroke-width:0.216347;stroke-linecap:round;stroke-linejoin:round;stroke-dasharray:none"
             d="m 308.47931,303.43385 1.92662,1.01614 2.10327,-0.92377"
             id="path142" /></g><g
           id="g148"
           transform="matrix(-0.0905219,0.81733685,-0.76168041,-0.09713639,519.05984,22.428871)"><path
             style="fill:#ffd046;fill-opacity:1;stroke:#e5e5e5;stroke-width:0.432695;stroke-linecap:round;stroke-linejoin:round;stroke-dasharray:none"
             id="path143"
             d="m 312.93114,300.60916 a 2.4982471,5.1120358 0 0 1 -2.47815,5.11187 2.4982471,5.1120358 0 0 1 -2.51802,-5.02962 2.4982471,5.1120358 0 0 1 2.43763,-5.1928 2.4982471,5.1120358 0 0 1 2.55725,4.94608" /><path
             style="fill:none;stroke:#e5e5e5;stroke-width:0.302886;stroke-linecap:round;stroke-linejoin:round;stroke-dasharray:none"
             d="m 310.42249,295.5126 -0.0165,13.19246"
             id="path144" /><path
             style="fill:none;stroke:#e5e5e5;stroke-width:0.216347;stroke-linecap:round;stroke-linejoin:round;stroke-dasharray:none"
             d="m 308.68908,297.15227 1.73341,1.03346 1.85485,-1.03346"
             id="path145" /><path
             style="fill:none;stroke:#e5e5e5;stroke-width:0.216347;stroke-linecap:round;stroke-linejoin:round;stroke-dasharray:none"
             d="m 308.01559,299.53096 2.40138,1.30481 2.42345,-1.29326"
             id="path146" /><path
             style="fill:none;stroke:#e5e5e5;stroke-width:0.216347;stroke-linecap:round;stroke-linejoin:round;stroke-dasharray:none"
             d="m 308.04871,301.61519 2.26337,1.22398 2.52834,-1.32213"
             id="path147" /><path
             style="fill:none;stroke:#e5e5e5;stroke-width:0.216347;stroke-linecap:round;stroke-linejoin:round;stroke-dasharray:none"
             d="m 308.47931,303.43385 1.92662,1.01614 2.10327,-0.92377"
             id="path148" /></g></g></g></g></svg>
