<?xml version="1.0" encoding="UTF-8" standalone="no"?>
<!-- Created with Inkscape (http://www.inkscape.org/) -->

<svg
   width="86.060349mm"
   height="59.434353mm"
   viewBox="0 0 86.060349 59.434353"
   version="1.1"
   id="svg1"
   xml:space="preserve"
   xmlns="http://www.w3.org/2000/svg"
   xmlns:svg="http://www.w3.org/2000/svg"><defs
     id="defs1" /><g
     id="layer6"
     transform="translate(150.47122,2.1680343)"><g
       id="g152"
       transform="matrix(0.98105854,0,0,0.97861691,-106.81756,-145.81699)"
       style="fill:#e8e8e3;fill-opacity:1;stroke:#1d1d1d;stroke-opacity:1"><path
         style="opacity:1;fill:#e8e8e3;fill-opacity:1;stroke:#1d1d1d;stroke-width:1.53087;stroke-linecap:round;stroke-linejoin:round;stroke-dasharray:none;stroke-opacity:1"
         id="path151"
         d="m -39.311367,202.886 a 2.4294052,2.4648762 0 0 1 -0.582691,3.41782 2.4294052,2.4648762 0 0 1 -3.374233,-0.55735 2.4294052,2.4648762 0 0 1 0.515908,-3.42885 2.4294052,2.4648762 0 0 1 3.384444,0.48949" /><path
         style="fill:#e8e8e3;fill-opacity:1;stroke:#1d1d1d;stroke-width:2.04116;stroke-linecap:round;stroke-linejoin:round;stroke-dasharray:none;stroke-opacity:1"
         id="path152"
         d="m -25.688277,191.31475 a 4.7897778,4.6816607 0 0 1 -1.148826,6.49162 4.7897778,4.6816607 0 0 1 -6.652585,-1.05859 4.7897778,4.6816607 0 0 1 1.017157,-6.51258 4.7897778,4.6816607 0 0 1 6.672717,0.9297" /><path
         style="fill:#e8e8e3;fill-opacity:1;stroke:#1d1d1d;stroke-width:3.06173;stroke-linecap:round;stroke-linejoin:round;stroke-dasharray:none;stroke-opacity:1"
         id="path152-4"
         d="m 35.159466,157.31152 a 36.399059,20.877718 0 0 1 -8.730294,28.9492 36.399059,20.877718 0 0 1 -50.55513,-4.72079 36.399059,20.877718 0 0 1 7.729705,-29.04263 36.399059,20.877718 0 0 1 50.708117,4.14597" /></g></g></svg>
