<?xml version="1.0" encoding="UTF-8" standalone="no"?>
<!-- Created with Inkscape (http://www.inkscape.org/) -->

<svg
   width="53.837032mm"
   height="67.240387mm"
   viewBox="0 0 53.837032 67.240387"
   version="1.1"
   id="svg1"
   xml:space="preserve"
   xmlns="http://www.w3.org/2000/svg"
   xmlns:svg="http://www.w3.org/2000/svg"><defs
     id="defs1" /><g
     id="layer7"
     transform="translate(-18.229032,-203.20937)"><g
       id="g34"
       style="stroke:#1d1d1d;stroke-opacity:1"
       transform="translate(4.5926758,1.2525493)"><path
         style="fill:#960200;fill-opacity:1;stroke:#1d1d1d;stroke-width:1.96314;stroke-linecap:round;stroke-dasharray:none;stroke-opacity:1"
         d="m 34.176523,254.01798 -0.0834,9.64264"
         id="path10-9" /><path
         style="fill:#960200;fill-opacity:1;stroke:#1d1d1d;stroke-width:1.96314;stroke-linecap:round;stroke-dasharray:none;stroke-opacity:1"
         d="m 42.585643,254.03846 -0.0834,9.64264"
         id="path10-5-7" /><path
         style="fill:none;fill-opacity:1;stroke:#1d1d1d;stroke-width:2.109;stroke-linecap:round;stroke-linejoin:round;stroke-dasharray:none;stroke-opacity:1"
         d="m 25.204199,231.9366 c -10.53973,21.07319 1.455106,31.97448 26.865804,25.68488"
         id="path12-3" /><path
         style="fill:none;fill-opacity:1;stroke:#1d1d1d;stroke-width:2.109;stroke-linecap:round;stroke-linejoin:round;stroke-dasharray:none;stroke-opacity:1"
         d="m 26.189019,241.37944 c -0.234853,1.4874 -0.332847,2.93502 0.243807,3.34293 0.591944,0.47858 2.153545,-0.73474 3.150211,-1.31332 0.624576,0.75483 1.180486,2.08198 1.832856,2.13416 1.0177,0.0261 1.77723,-1.76327 2.4296,-2.38954 0.9916,0.4958 2.39422,1.5326 3.0205,1.45431 0.41751,-0.0261 1.03676,-1.89694 1.06285,-3.43653"
         id="path13-8" /><path
         style="fill:none;fill-opacity:1;stroke:#1d1d1d;stroke-width:2.109;stroke-linecap:round;stroke-linejoin:round;stroke-dasharray:none;stroke-opacity:1"
         d="m 33.913443,264.04271 c -2.34166,0.33282 -4.964888,-0.27364 -6.052184,2.36182 1.0086,2.72352 6.888394,1.33718 6.790254,1.54996"
         id="path11-5" /><path
         style="fill:none;fill-opacity:1;stroke:#1d1d1d;stroke-width:2.109;stroke-linecap:round;stroke-linejoin:round;stroke-dasharray:none;stroke-opacity:1"
         d="m 42.343793,263.96226 c -2.34166,0.33282 -5.26011,-0.19983 -5.90457,2.36182 0.0411,2.66499 7.9301,1.67107 8.56163,1.47615"
         id="path11-1-5" /><path
         style="fill:#e8aa00;fill-opacity:1;stroke:#1d1d1d;stroke-width:2.109;stroke-linecap:round;stroke-linejoin:round;stroke-dasharray:none;stroke-opacity:1"
         d="m 47.715383,232.30563 c 0,0 7.60214,-2.65706 15.27808,6.42122 5.31412,8.93067 2.80467,21.77311 2.80467,21.77311 0,0 -15.05666,2.14041 -22.14215,-12.25198 -3.91178,-13.21148 4.0594,-15.94235 4.0594,-15.94235 z"
         id="path14-8" /><path
         style="fill:none;fill-opacity:1;stroke:#1d1d1d;stroke-width:2.109;stroke-linecap:round;stroke-linejoin:round;stroke-dasharray:none;stroke-opacity:1"
         d="m 43.655993,248.02655 c 3.47077,-7.70643 9.76607,-11.0394 19.33747,-9.2997"
         id="path15-3" /><path
         style="fill:none;fill-opacity:1;stroke:#1d1d1d;stroke-width:2.109;stroke-linecap:round;stroke-linejoin:round;stroke-dasharray:none;stroke-opacity:1"
         d="m 59.155493,235.0365 c -4.06927,-14.60871 5.2417,-15.74266 -0.22142,-23.17545 2.01174,-2.27532 3.39174,-3.82544 1.47614,-8.04498 -1.15774,1.76708 -3.20576,3.66802 -4.94508,3.69035 -10.89022,-6.67925 -20.51993,-6.87942 -29.449054,6.05219"
         id="path16-1" /><path
         style="fill:#e8aa00;fill-opacity:1;stroke:#1d1d1d;stroke-width:2.109;stroke-linecap:round;stroke-linejoin:round;stroke-dasharray:none;stroke-opacity:1"
         d="m 15.314042,231.41994 c -2.605742,-7.62778 3.247868,-14.56249 10.480617,-17.86133 11.305004,-0.43301 11.033414,9.19297 8.340214,15.4257 -5.362387,-1.91259 -14.640305,-7.91059 -18.820831,2.43563 z"
         id="path17-8" /><path
         style="fill:none;fill-opacity:1;stroke:#1d1d1d;stroke-width:2.109;stroke-linecap:round;stroke-linejoin:round;stroke-dasharray:none;stroke-opacity:1"
         d="m 21.218613,226.69628 c 4.541094,8.32896 8.765119,6.36408 12.91625,2.21422"
         id="path18-9" /><ellipse
         style="fill:#e8e8e3;fill-opacity:1;stroke:#1d1d1d;stroke-width:2.109;stroke-linecap:round;stroke-linejoin:round;stroke-dasharray:none;stroke-opacity:1"
         id="path19-6"
         ry="1.7344686"
         rx="5.0557904"
         cy="219.20486"
         cx="45.021423" /><path
         style="fill:none;fill-opacity:1;stroke:#1d1d1d;stroke-width:2.109;stroke-linecap:round;stroke-linejoin:round;stroke-dasharray:none;stroke-opacity:1"
         id="path20-4"
         d="m 45.132138,219.09415 a 0.92258948,1.3285288 0 0 1 -0.912764,1.32845 0.92258948,1.3285288 0 0 1 -0.932205,-1.30016 0.92258948,1.3285288 0 0 1 0.892908,-1.35614 0.92258948,1.3285288 0 0 1 0.951224,1.27127 l -0.921752,0.0566 z" /><path
         style="fill:#960200;fill-opacity:1;stroke:#1d1d1d;stroke-width:0.58832;stroke-linecap:round;stroke-linejoin:round;stroke-dasharray:none;stroke-opacity:1"
         d="m 62.476814,259.49523 c -3.530081,-0.27897 -6.239597,-1.00713 -8.930666,-2.40004 -1.823471,-0.94383 -3.283831,-2.01522 -4.762624,-3.49409 -1.403747,-1.40382 -2.561146,-2.94476 -3.576479,-4.76168 l -0.391276,-0.70019 0.378581,-0.74461 c 0.780688,-1.53551 1.630403,-2.73859 2.779358,-3.9352 1.993212,-2.07588 4.378492,-3.32544 7.343812,-3.84716 1.656826,-0.2915 4.216323,-0.28668 6.396099,0.012 l 0.602239,0.0825 0.478798,1.0046 c 1.213913,2.54699 1.924492,5.21045 2.306007,8.64364 0.158142,1.42307 0.222097,5.09132 0.115171,6.60574 -0.119399,1.69108 -0.309348,3.3829 -0.389472,3.46894 -0.0674,0.0724 -1.690013,0.11759 -2.349548,0.0655 z"
         id="path21-3" /><path
         style="fill:#e8aa00;fill-opacity:1;stroke:#1d1d1d;stroke-width:0.58832;stroke-linecap:round;stroke-linejoin:round;stroke-dasharray:none;stroke-opacity:1"
         d="m 27.344606,231.3377 c -0.587835,-0.0941 -1.505553,-0.57419 -2.151993,-1.12577 -0.663549,-0.56617 -1.613482,-1.73064 -2.257984,-2.76794 -0.253711,-0.40834 -0.461293,-0.76506 -0.461293,-0.79271 0,-0.0277 0.406861,-0.032 0.904137,-0.01 1.861034,0.0838 3.605961,0.59146 7.306908,2.12568 0.720542,0.2987 1.310076,0.56784 1.310076,0.5981 0,0.0828 -1.07406,0.88081 -1.655376,1.22992 -0.598233,0.35927 -1.146225,0.57663 -1.81356,0.71935 -0.534032,0.11421 -0.602393,0.11553 -1.180915,0.0229 z"
         id="path24-3" /><path
         style="opacity:1;fill:#aea897;fill-opacity:1;stroke:#1d1d1d;stroke-width:2.22357;stroke-linecap:round;stroke-linejoin:round;stroke-dasharray:none;stroke-opacity:1"
         d="m 140.31496,976.03381 c -2.22467,-0.12655 -4.79805,-0.3285 -5.7186,-0.44878 l -1.67374,-0.21869 0.10818,-7.95377 c 0.10376,-7.62881 0.0844,-8.00043 -0.47426,-9.09545 -1.47489,-2.89103 -5.62665,-2.66518 -6.92273,0.37659 -0.29125,0.68352 -0.38248,2.63112 -0.38248,8.16478 v 7.26713 l -0.76713,-0.18478 c -12.60618,-3.0365 -21.51481,-7.69136 -28.164413,-14.7162 -7.621417,-8.05151 -11.279041,-18.16076 -11.271299,-31.15258 0.0054,-9.02258 1.607221,-18.02617 5.059519,-28.43837 2.526721,-7.62063 7.16134,-18.35772 7.837059,-18.15623 3.396764,1.0129 4.526234,1.19181 7.500374,1.1881 7.83195,-0.01 14.65844,-3.51904 24.51278,-12.60122 2.86115,-2.63696 3.02474,-2.9179 4.95423,-8.50816 1.44326,-4.18152 2.63246,-8.84079 3.35863,-13.1591 0.77557,-4.61203 0.7061,-14.54094 -0.12868,-18.39198 -1.5197,-7.0108 -3.95923,-11.95553 -8.02438,-16.26481 -3.34207,-3.54277 -7.85957,-6.42062 -12.91438,-8.22704 -2.31476,-0.82721 -8.36866,-2.11944 -9.92929,-2.11944 h -1.03003 l 0.6213,-0.87253 c 0.34171,-0.4799 1.74394,-2.20594 3.11605,-3.83565 11.52651,-13.69044 23.61882,-22.17825 36.35619,-25.51907 12.27648,-3.21993 25.27212,-1.93042 40.24357,3.99322 4.61586,1.82632 12.94144,5.96101 17.75398,8.81707 3.07178,1.82299 3.86108,2.17143 5.16068,2.27819 4.2372,0.34808 10.00158,-2.40954 15.25207,-7.29642 l 2.2806,-2.12267 0.33436,1.60886 c 0.47002,2.2616 0.20406,5.73159 -0.58353,7.6133 -0.89921,2.14842 -2.64105,4.70133 -5.41251,7.9328 -3.36629,3.92504 -3.46727,4.96876 -0.85475,8.8346 3.31635,4.90734 4.70498,8.77559 4.69333,13.07402 -0.009,3.43843 -0.63456,5.96771 -3.24733,13.13635 -2.75586,7.56121 -3.89828,11.17649 -4.75207,15.03823 -1.53624,6.94854 -2.07183,13.94879 -1.59006,20.78223 0.28206,4.00087 1.17666,10.94797 1.56999,12.19202 0.11242,0.35556 -0.64671,0.0982 -3.00269,-1.01806 -7.70228,-3.64925 -15.48609,-5.45536 -23.51105,-5.45536 -8.50135,0 -13.47216,1.52745 -19.08319,5.86394 -10.77506,8.32752 -16.10459,23.27096 -14.52328,40.72175 0.78086,8.61729 3.06573,18.65863 5.20176,22.86025 5.40753,10.63669 14.08995,21.44864 22.59415,28.13578 l 2.0185,1.58721 -1.03596,0.22216 c -4.77682,1.02442 -19.0165,3.26479 -20.75084,3.26479 -0.52739,0 -0.53684,-0.20475 -0.36374,-7.88051 0.16467,-7.30175 0.14023,-7.95076 -0.33269,-8.83703 -0.773,-1.44864 -1.8533,-2.112 -3.43944,-2.112 -1.5936,0 -2.68331,0.67357 -3.41678,2.112 -0.43178,0.84678 -0.48779,1.90365 -0.48818,9.21191 l -4.3e-4,8.25539 -4.22869,0.18303 c -4.8653,0.21059 -6.89535,0.18952 -12.50868,-0.1298 z m -19.67605,-44.18852 c 0.6084,-0.0987 1.47983,-0.37269 1.93651,-0.60884 1.24205,-0.64229 3.69768,-3.06278 5.10523,-5.03218 0.68534,-0.95891 1.31279,-1.74347 1.39432,-1.74347 0.0815,0 0.88013,0.44459 1.77466,0.98799 6.03196,3.66422 9.85819,4.07021 12.28717,1.30375 1.90852,-2.17368 3.57378,-7.26194 4.16069,-12.71311 0.29268,-2.71837 0.27517,-3.01661 -0.24623,-4.19533 -0.70013,-1.58274 -1.94662,-2.39755 -3.66778,-2.39755 -1.41815,0 -2.78722,0.70405 -3.5079,1.80396 -0.28621,0.4368 -0.56723,1.72249 -0.71934,3.29105 -0.21741,2.24179 -1.14897,6.7881 -1.45327,7.0924 -0.0582,0.0582 -1.97357,-0.96543 -4.25632,-2.27478 -6.44014,-3.69398 -7.20007,-3.50447 -11.75545,2.93138 -2.52847,3.57225 -2.22556,3.5595 -4.48699,0.18887 -2.17986,-3.24902 -3.23545,-4.2807 -4.65177,-4.5464 -1.39939,-0.26253 -2.12149,-0.003 -4.97236,1.78458 -1.40419,0.88066 -3.14935,1.94748 -3.87812,2.37073 l -1.32504,0.76954 0.006,-1.47628 c 0.003,-0.81195 0.17823,-2.77907 0.38869,-4.37138 0.50523,-3.82259 0.0612,-5.35342 -1.83778,-6.3354 -1.27485,-0.65926 -3.631374,-0.41988 -4.592615,0.46651 -1.037618,0.95683 -1.394248,1.97028 -1.781656,5.063 -0.507494,4.05139 -0.259836,9.19831 0.527074,10.95386 1.118069,2.49434 3.016964,3.92846 5.607897,4.23532 1.83354,0.21715 4.53645,-0.63857 7.54042,-2.38727 l 2.37113,-1.3803 0.41843,0.59923 c 3.1011,4.44104 5.48537,6.20264 7.95025,5.87398 0.30685,-0.0409 1.0557,-0.15515 1.6641,-0.25386 z m 58.67351,-93.40756 c 5.11022,-0.95366 9.22647,-2.56494 11.39925,-4.46217 3.43899,-3.00287 3.43899,-7.94851 0,-10.95138 -3.65737,-3.19355 -11.37326,-5.11375 -20.5484,-5.11375 -9.17513,0 -16.89103,1.9202 -20.54839,5.11375 -2.55456,2.23059 -3.30828,5.62853 -1.88296,8.48877 0.93617,1.87865 2.50863,3.22595 5.27555,4.52015 3.09339,1.44692 5.5635,2.05926 11.71616,2.90444 1.9623,0.26956 12.37829,-0.0873 14.58879,-0.49981 z"
         id="path27"
         transform="scale(0.26458333)" /></g></g></svg>
