<?xml version="1.0" encoding="UTF-8" standalone="no"?>
<!-- Created with Inkscape (http://www.inkscape.org/) -->

<svg
   width="42.68119mm"
   height="30.175714mm"
   viewBox="0 0 42.68119 30.175714"
   version="1.1"
   id="svg1"
   xml:space="preserve"
   xmlns="http://www.w3.org/2000/svg"
   xmlns:svg="http://www.w3.org/2000/svg"><defs
     id="defs1" /><g
     id="layer7"
     transform="translate(-48.633981,-172.35819)"><g
       id="g153"><path
         style="opacity:1;fill:#000000;fill-opacity:0;stroke:#241e4e;stroke-width:2;stroke-linecap:round;stroke-linejoin:round;stroke-dasharray:none;stroke-opacity:1"
         id="path31"
         d="m 54.052971,197.66647 a 2.4294052,2.4648762 0 0 1 -0.582691,3.41782 2.4294052,2.4648762 0 0 1 -3.374233,-0.55735 2.4294052,2.4648762 0 0 1 0.515908,-3.42884 2.4294052,2.4648762 0 0 1 3.384444,0.48948" /><path
         style="fill:#000000;fill-opacity:0;stroke:#241e4e;stroke-width:2;stroke-linecap:round;stroke-linejoin:round;stroke-dasharray:none;stroke-opacity:1"
         id="path31-0"
         d="m 66.517947,189.31691 a 4.7897778,4.6816607 0 0 1 -1.148825,6.49163 4.7897778,4.6816607 0 0 1 -6.652586,-1.0586 4.7897778,4.6816607 0 0 1 1.017158,-6.51257 4.7897778,4.6816607 0 0 1 6.672717,0.9297" /><path
         style="opacity:1;fill:#000000;fill-opacity:0;stroke:#241e4e;stroke-width:2;stroke-linecap:round;stroke-linejoin:round;stroke-dasharray:none;stroke-opacity:1;paint-order:normal"
         d="m 70.116798,181.23348 c -4.806409,-2.63724 2.488368,-8.41733 5.572441,-5.1296 0.944703,-3.67672 7.122074,-3.37735 7.934268,-0.77498 3.584736,-1.76039 9.466094,4.44283 4.465333,6.31051 5.487337,2.8621 -0.493297,9.62452 -3.801068,6.27361 -0.594104,3.91497 -9.897974,3.22027 -9.336604,-1.07021 -3.658867,2.14571 -9.53708,-1.90113 -4.83437,-5.60933 z"
         id="path32" /></g></g></svg>
