<?xml version="1.0" encoding="UTF-8" standalone="no"?>
<!-- Created with Inkscape (http://www.inkscape.org/) -->

<svg
   width="93.230461mm"
   height="56.680908mm"
   viewBox="0 0 93.230461 56.680908"
   version="1.1"
   id="svg1"
   xml:space="preserve"
   xmlns="http://www.w3.org/2000/svg"
   xmlns:svg="http://www.w3.org/2000/svg"><defs
     id="defs1" /><a
     id="a1"
     transform="translate(114.79654,-160.98761)"><g
       id="g153"
       transform="matrix(2.9046303,0,0,2.7969499,-285.17083,-322.6602)"
       style="stroke-width:0.701685;stroke-dasharray:none"><path
         style="opacity:1;fill:#000000;fill-opacity:0;stroke:#241e4e;stroke-width:0.526264;stroke-linecap:round;stroke-linejoin:round;stroke-dasharray:none;stroke-opacity:1"
         id="path31"
         d="m 60.772066,191.22876 a 1.0173122,1.0796013 0 0 1 -0.244002,1.49699 1.0173122,1.0796013 0 0 1 -1.412958,-0.24412 1.0173122,1.0796013 0 0 1 0.216036,-1.50181 1.0173122,1.0796013 0 0 1 1.417234,0.21439" /><path
         style="fill:#000000;fill-opacity:0;stroke:#241e4e;stroke-width:0.701685;stroke-linecap:round;stroke-linejoin:round;stroke-dasharray:none;stroke-opacity:1"
         id="path31-0"
         d="m 65.487034,186.94249 a 1.6735952,1.6369265 0 0 1 -0.401411,2.26978 1.6735952,1.6369265 0 0 1 -2.324478,-0.37014 1.6735952,1.6369265 0 0 1 0.355405,-2.2771 1.6735952,1.6369265 0 0 1 2.331512,0.32507" /><path
         style="opacity:1;fill:#000000;fill-opacity:0;stroke:#241e4e;stroke-width:0.877106;stroke-linecap:round;stroke-linejoin:round;stroke-dasharray:none;stroke-opacity:1;paint-order:normal"
         d="m 70.116798,181.23348 c -4.806409,-2.63724 2.488368,-8.41733 5.572441,-5.1296 0.944703,-3.67672 7.122074,-3.37735 7.934268,-0.77498 3.584736,-1.76039 9.466094,4.44283 4.465333,6.31051 5.487337,2.8621 -0.493297,9.62452 -3.801068,6.27361 -0.594104,3.91497 -9.897974,3.22027 -9.336604,-1.07021 -3.658867,2.14571 -9.53708,-1.90113 -4.83437,-5.60933 z"
         id="path32" /></g></a></svg>
