<?xml version="1.0" encoding="UTF-8" standalone="no"?>
<!-- Created with Inkscape (http://www.inkscape.org/) -->

<svg
   width="52.493996mm"
   height="67.314629mm"
   viewBox="0 0 52.493996 67.314629"
   version="1.1"
   id="svg1"
   xml:space="preserve"
   xmlns="http://www.w3.org/2000/svg"
   xmlns:svg="http://www.w3.org/2000/svg"><defs
     id="defs1" /><g
     id="layer3"
     transform="translate(-89.723575,-45.234222)"><g
       id="g33"><path
         style="fill:none;fill-opacity:1;stroke:#241e4e;stroke-width:2.10743;stroke-linecap:round;stroke-linejoin:round;stroke-dasharray:none;stroke-opacity:0.995318"
         d="m 107.81009,90.87902 c 12.36105,20.85227 40.84277,8.506029 30.79853,-15.386392"
         id="path12-7" /><g
         id="g37"
         transform="matrix(0.55863492,-0.82944598,0.82816535,0.55777241,-43.581767,149.61522)"><path
           style="fill:#ffd046;fill-opacity:1;stroke:#241e4e;stroke-width:2.17713;stroke-linecap:round;stroke-linejoin:round;stroke-dasharray:none;stroke-opacity:1"
           d="m 151.95689,104.77786 c 0,0 -2.78766,-7.721677 6.73684,-15.518307 9.36963,-5.39767 22.8433,-2.84877 22.8433,-2.84877 0,0 2.24562,15.293407 -12.85419,22.490307 -13.86085,3.97328 -16.72595,-4.12323 -16.72595,-4.12323 z"
           id="path14-6" /><path
           style="fill:none;fill-opacity:1;stroke:#241e4e;stroke-width:2.17713;stroke-linecap:round;stroke-linejoin:round;stroke-dasharray:none;stroke-opacity:1"
           d="m 169.1886,108.163 c -8.08522,-3.52535 -11.40576,-9.376825 -9.58055,-19.098725"
           id="path15-4" /></g><path
         style="fill:none;fill-opacity:1;stroke:#241e4e;stroke-width:2.10743;stroke-linecap:round;stroke-linejoin:round;stroke-dasharray:none;stroke-opacity:1"
         d="m 120.84595,59.286217 c -3.88358,-0.556959 -1.61158,-7.672218 -10.81905,-7.286666 -0.76051,-2.937738 -1.27335,-4.946991 -5.83794,-5.711644 0.81668,1.945911 1.24687,4.704925 0.29372,6.160049 -11.615185,5.307353 -17.160456,13.183027 -11.439057,27.802149"
         id="path16-3" /><path
         style="fill:#ffd046;fill-opacity:1;stroke:#241e4e;stroke-width:2.10743;stroke-linecap:round;stroke-linejoin:round;stroke-dasharray:none;stroke-opacity:1"
         d="M 101.85722,99.089422 C 94.084504,96.996177 91.611448,88.272933 92.919933,80.433756 c 5.956762,-9.618405 13.776947,-4.024029 17.434157,1.686278 -4.57955,3.381011 -14.729855,7.731028 -8.49687,16.969388 z"
         id="path17-0" /><path
         style="fill:none;fill-opacity:1;stroke:#241e4e;stroke-width:2.10743;stroke-linecap:round;stroke-linejoin:round;stroke-dasharray:none;stroke-opacity:1"
         d="m 101.24375,91.557173 c 9.43458,0.879064 10.16701,-3.720486 9.04921,-9.4783"
         id="path18-3" /><ellipse
         style="fill:none;fill-opacity:1;stroke:#241e4e;stroke-width:2.10743;stroke-linecap:round;stroke-linejoin:round;stroke-dasharray:none;stroke-opacity:1"
         id="path19-0"
         cx="4.4205279"
         cy="127.63958"
         rx="5.0559263"
         ry="5.1218143"
         transform="rotate(-56.039588)" /><path
         style="fill:none;fill-opacity:1;stroke:#241e4e;stroke-width:2.10743;stroke-linecap:round;stroke-linejoin:round;stroke-dasharray:none;stroke-opacity:1"
         id="path20-9"
         d="m 109.442,69.123322 a 0.92261422,1.694989 0 0 1 -0.91279,1.694892 0.92261422,1.694989 0 0 1 -0.93223,-1.658792 0.92261422,1.694989 0 0 1 0.89293,-1.730224 0.92261422,1.694989 0 0 1 0.95125,1.621939 l -0.92177,0.07219 z"
         transform="rotate(0.90590793)" /><path
         style="fill:#ffd046;fill-opacity:1;stroke:#ffd046;stroke-width:0.587882;stroke-linecap:round;stroke-linejoin:round;stroke-dasharray:none;stroke-opacity:1"
         d="m 108.50981,89.064842 c -0.40632,0.435097 -1.31658,0.928513 -2.1345,1.157046 -0.83957,0.234587 -2.33461,0.372989 -3.5537,0.328992 -0.47991,-0.01732 -0.89129,-0.04411 -0.91419,-0.05953 -0.0229,-0.0154 0.20087,-0.355264 0.49677,-0.755525 1.10903,-1.496884 2.50424,-2.661052 5.84231,-4.875045 0.64989,-0.431043 1.20212,-0.769911 1.22718,-0.753033 0.0686,0.04618 0.12945,1.382159 0.0938,2.05906 -0.0367,0.696593 -0.16277,1.272355 -0.41737,1.905485 -0.20374,0.506649 -0.24084,0.564085 -0.64073,0.992276 z"
         id="path24-4" /><path
         style="opacity:1;fill:#960200;fill-opacity:1;stroke:#241e4e;stroke-width:0.557498;stroke-linecap:round;stroke-linejoin:round;stroke-dasharray:none;stroke-opacity:1;paint-order:normal"
         d="m 138.7031,69.357572 c -1.875,1.031751 -3.33971,1.580414 -5.13675,1.924178 -2.77216,0.530295 -5.45771,0.161681 -8.2474,-1.132016 -1.01027,-0.468504 -3.51177,-2.153466 -4.42941,-2.98354 -0.34573,-0.312782 -0.6316,-0.584073 -0.63527,-0.602917 -0.0311,-0.159865 0.3583,-1.947264 0.65468,-3.005412 0.57728,-2.060963 1.50905,-4.292979 2.75464,-6.598646 1.25821,-2.329002 4.09739,-6.311333 5.79715,-8.131281 l 0.19131,-0.204869 0.83464,0.5631 c 3.72294,2.511031 6.64667,6.072169 8.13543,9.907391 0.61588,1.586574 1.14795,3.888215 1.29689,5.610219 0.11579,1.338425 0.0803,3.760596 -0.058,3.957822 -0.0368,0.05277 -0.55801,0.365885 -1.15794,0.695995 z"
         id="path37" /><path
         style="opacity:1;fill:#aea897;fill-opacity:1;stroke:#241e4e;stroke-width:0.557498;stroke-linecap:round;stroke-linejoin:round;stroke-dasharray:none;stroke-opacity:1;paint-order:normal"
         d="m 135.8972,95.721624 c -0.45377,0.506811 -0.79334,0.846422 -1.22289,1.223114 l -2.4651,1.765785 c -2.43835,1.414807 -5.5029,2.115547 -8.52648,1.949687 -3.36578,-0.18463 -6.87165,-1.573985 -9.639,-3.819891 -1.4087,-1.143245 -2.98619,-2.82779 -4.03649,-4.31036 -0.76106,-1.07429 -0.81914,-1.176212 -0.71273,-1.250933 0.76245,-0.535381 1.71175,-1.808547 2.02446,-2.715145 0.52099,-1.510464 0.58479,-2.941985 0.24763,-5.557183 -0.15941,-1.236532 -0.18007,-1.310908 -0.4979,-1.792808 -1.9907,-3.01835 -4.98161,-5.569534 -7.6462,-6.522034 -1.39987,-0.500426 -2.7705,-0.659321 -4.11826,-0.477416 -1.949991,0.26319 -4.076114,1.535332 -5.666758,3.39065 l -0.278431,0.324796 -0.131536,-0.421701 c -0.621721,-1.993054 -1.16199,-4.510434 -1.278625,-5.957625 -0.527342,-6.543608 1.933647,-11.335673 7.849631,-15.284901 1.015109,-0.677649 2.901299,-1.745414 4.150259,-2.349454 1.34674,-0.651358 1.35752,-0.659556 1.65004,-1.257869 0.50835,-1.039775 0.64088,-2.469976 0.37273,-4.022156 -0.16391,-0.948811 -0.19267,-0.934677 0.76721,-0.376842 1.05756,0.614612 1.54889,1.429944 2.06801,3.431755 0.2023,0.780132 0.31214,0.988773 0.63536,1.206836 0.24692,0.166589 0.39213,0.190434 1.16015,0.190336 1.01389,-1.09e-4 2.46529,0.191233 3.09119,0.40753 0.67053,0.231722 1.45839,0.716539 1.88452,1.159637 0.54514,0.566881 0.79753,0.958089 1.54319,2.392002 0.84143,1.618072 1.23295,2.140683 2.00218,2.672525 0.54949,0.379729 0.56157,0.393778 0.49304,0.564615 -1.52733,3.587046 -2.03181,6.895165 -1.27695,10.667898 1.08597,5.16833 3.68285,9.126428 7.36489,11.225394 1.61037,0.917989 2.59088,1.167841 4.19403,1.068662 2.92257,-0.180789 5.81444,-1.842238 8.02636,-4.611347 l 0.40914,-0.512207 0.18321,0.585493 c 0.94666,3.025337 1.28106,5.979331 0.9816,8.671118 -0.0916,0.822967 0.1031,3.984911 -3.60143,8.342035 z M 114.18045,69.709899 c 0.73325,-2.055069 0.27635,-4.386651 -1.19925,-6.119895 -0.50475,-0.592881 -1.96377,-1.554657 -2.73397,-1.802274 -1.19424,-0.383875 -2.59153,-0.408692 -3.73349,-0.06632 -0.72625,0.217756 -1.71459,0.759908 -2.28746,1.254797 -0.63453,0.548158 -1.48343,1.80633 -1.75108,2.594587 -0.54929,1.62025 -0.39181,3.449495 0.4256,4.943377 0.48333,0.883338 0.93524,1.395482 1.79019,2.028819 1.47094,1.089666 3.04399,1.463304 4.80823,1.142049 2.203,-0.401115 3.92848,-1.866529 4.68093,-3.975399 z"
         id="path38" /><g
         id="g38"
         transform="translate(2.6094771,-0.8872222)"><path
           style="fill:none;fill-opacity:1;stroke:#241e4e;stroke-width:2.20886;stroke-linecap:round;stroke-linejoin:round;stroke-dasharray:none;stroke-opacity:0.995318"
           d="m 130.46181,107.9214 c -2.40774,0.29174 -5.45151,-0.35026 -6.0021,2.35159 0.16337,2.82956 8.28078,1.98189 8.92533,1.79161"
           id="path11-1-8" /><path
           style="fill:#960200;fill-opacity:1;stroke:#241e4e;stroke-width:2.0561;stroke-linecap:round;stroke-dasharray:none;stroke-opacity:1"
           d="m 121.56038,97.15256 0.35107,10.23198"
           id="path10-8" /><path
           style="fill:#960200;fill-opacity:1;stroke:#241e4e;stroke-width:2.0561;stroke-linecap:round;stroke-dasharray:none;stroke-opacity:1"
           d="m 130.26191,97.39518 0.35111,10.23197"
           id="path10-5-8" /><path
           style="fill:none;fill-opacity:1;stroke:#241e4e;stroke-width:2.20886;stroke-linecap:round;stroke-linejoin:round;stroke-dasharray:none;stroke-opacity:0.995318"
           d="m 121.74288,107.78535 c -2.40774,0.29174 -5.1494,-0.42083 -6.15484,2.34774 1.1671,2.91709 7.18783,1.60012 7.09594,1.82339"
           id="path11-9" /></g><path
         style="fill:none;fill-opacity:1;stroke:#241e4e;stroke-width:2.10743;stroke-linecap:round;stroke-linejoin:round;stroke-dasharray:none;stroke-opacity:0.957537"
         d="m 114.67823,90.271995 c -0.22768,1.486262 -0.31871,2.932141 0.25993,3.336641 0.59425,0.474992 2.15003,-0.744008 3.14392,-1.326521 0.62823,0.750656 1.19053,2.073099 1.84317,2.122047 0.48964,0.01017 0.91751,-0.398852 1.30217,-0.895857 0.41479,-0.536386 0.77912,-1.175405 1.11609,-1.501539 0.99401,0.490245 2.40165,1.518693 3.02757,1.437501 0.41739,-0.02808 1.02762,-1.89905 1.04629,-3.436411"
         id="path13-7" /></g></g></svg>
