<?xml version="1.0" encoding="UTF-8" standalone="no"?>
<!-- Created with Inkscape (http://www.inkscape.org/) -->

<svg
   width="83.873535mm"
   height="26.981852mm"
   viewBox="0 0 83.873535 26.981852"
   version="1.1"
   id="svg1"
   xml:space="preserve"
   xmlns="http://www.w3.org/2000/svg"
   xmlns:svg="http://www.w3.org/2000/svg"><defs
     id="defs1" /><g
     id="layer12"
     transform="translate(-76.042161,-127.60698)"><path
       d="m 86.038461,129.98223 q 0.8128,-0.002 1.7272,-0.1568 0.9398,-0.1548 1.9812,-0.15745 1.777999,-0.005 2.514599,0.90798 0.762,0.88706 0.762,2.30946 0,0.7874 -0.2032,1.24512 -0.1778,0.43225 -0.4826,0.66163 -0.2794,0.20391 -0.635,0.30642 -0.3302,0.077 -0.634999,0.17942 -0.2794,0.0769 -0.4826,0.25523 -0.1778,0.15285 -0.1778,0.55925 0,0.4826 0.254,1.14235 0.254,0.63436 0.558799,1.62418 0.3302,0.96436 0.5842,2.36071 0.254,1.39635 0.254,3.35215 0,4.3942 -2.031999,6.60918 -2.032,2.21498 -6.0452,2.22522 -3.3528,0.009 -5.0546,-1.53651 -1.7018,-1.51967 -1.7018,-4.51687 0,-1.8542 0.6096,-2.97335 0.6096,-1.14455 1.6002,-1.14708 0.4064,-0.001 0.6096,0.17625 0.2286,0.15181 0.4318,0.35449 0.2032,0.17729 0.4572,0.35444 0.254,0.15175 0.7112,0.15059 0.6604,-0.002 1.2192,-0.43491 0.5842,-0.45869 1.016,-1.19639 0.4318,-0.7631 0.6858,-1.72895 0.254,-0.96585 0.254,-2.03265 0,-1.143 -0.2794,-1.95509 -0.2794,-0.83748 -0.7874,-1.16639 -0.254,-0.15175 -0.5842,-0.20171 -0.3302,-0.05 -0.762,-0.0489 -0.5588,0.001 -1.1938,0.0539 -0.635,0.027 -1.27,-0.0476 -0.6096,-0.0746 -1.1684,-0.32722 -0.5334,-0.27804 -0.9144,-0.86126 -0.5334,-0.81144 -0.5334,-1.75124 0,-1.2954 0.8636,-2.08501 0.889,-0.78966 2.2606,-0.79316 1.1938,-0.003 2.6416,0.14566 1.4478,0.14871 2.9464,0.14489 z m 16.865579,-1.0844 q 1.397,-0.004 2.6162,0.52673 1.2446,0.50482 2.2606,1.39123 1.016,0.88641 1.8034,2.10361 0.7874,1.19179 1.3208,2.58743 0.5588,1.39557 0.8382,2.89346 0.3048,1.49782 0.3048,2.97102 0,2.1844 -0.6858,4.19275 -0.6604,1.98289 -1.9304,3.51012 -1.2446,1.50178 -3.0734,2.39544 -1.8034,0.8936 -4.1148,0.89949 -1.9812,0.005 -3.581403,-0.75287 -1.5748,-0.73258 -2.6924,-2.10133 -1.0922,-1.34342 -1.7018,-3.19606 -0.5842,-1.87811 -0.5842,-4.08791 0,-2.6416 0.6858,-5.03095 0.6858,-2.41475 1.905,-4.24666 1.2446,-1.85737 2.921,-2.95385 1.701803,-1.09654 3.708403,-1.10165 z m -2.6924,10.29386 q 0,0.9652 0.7366,1.59833 0.762,0.63305 1.9558,0.63001 1.0668,-0.003 1.6764,-0.56308 0.635,-0.58582 0.635,-1.55102 0,-0.5334 -0.2032,-0.99008 -0.1778,-0.45674 -0.508,-0.7861 -0.3302,-0.35476 -0.7874,-0.53139 -0.4318,-0.2021 -0.9652,-0.20074 -0.5334,0.001 -0.9906,0.20572 -0.4572,0.17897 -0.8128,0.51008 -0.3302,0.30564 -0.5334,0.73796 -0.2032,0.43231 -0.2032,0.94031 z m 12.77619,-5.92537 q 0,-1.0922 0.3048,-1.88038 0.3302,-0.78824 0.889,-1.29767 0.5588,-0.53482 1.3208,-0.76536 0.7874,-0.25601 1.6764,-0.25828 0.9144,-0.002 1.6764,0.27513 0.762,0.25205 1.2954,0.73329 0.5334,0.48124 0.8128,1.14093 0.3048,0.63422 0.3048,1.37082 0,0.7874 -0.3556,1.62651 -0.3302,0.83904 -0.762,1.77994 -0.4064,0.91544 -0.762,1.95775 -0.3302,1.04224 -0.3302,2.23604 0,1.6002 0.6858,2.58905 0.6858,0.98885 1.8034,0.986 0.8382,-0.002 1.3716,-0.4861 0.5334,-0.50936 1.016,-1.12019 0.508,-0.61089 1.0668,-1.09492 0.5842,-0.50949 1.4732,-0.51175 1.3462,-0.003 2.0828,1.26469 0.762,1.24265 0.762,3.47785 0,4.0894 -2.5908,6.07721 -2.5908,2.01321 -7.5438,2.02583 -1.5748,0.004 -2.6924,-0.24713 -1.1176,-0.22575 -1.8288,-0.75734 -0.7112,-0.50618 -1.0668,-1.34348 -0.3302,-0.83736 -0.3556,-2.03109 v -0.254 q 0,-0.9652 0.1524,-2.00699 0.1524,-1.04179 0.3048,-2.10898 0.1778,-1.09265 0.3302,-2.18524 0.1524,-1.09259 0.1524,-2.10859 0,-1.016 -0.2032,-1.87908 -0.1778,-0.88855 -0.4064,-1.72616 -0.2032,-0.83768 -0.4064,-1.67537 -0.1778,-0.86314 -0.1778,-1.80294 z m 17.29739,-0.0441 q 0,-1.0922 0.3048,-1.88037 0.3302,-0.78825 0.889,-1.29767 0.5588,-0.53483 1.3208,-0.76537 0.7874,-0.25601 1.6764,-0.25827 0.9144,-0.002 1.6764,0.27512 0.762,0.25206 1.2954,0.7333 0.5334,0.48124 0.8128,1.14093 0.3048,0.63422 0.3048,1.37082 0,0.7874 -0.3556,1.62651 -0.3302,0.83904 -0.762,1.77994 -0.4064,0.91544 -0.762,1.95774 -0.3302,1.04224 -0.3302,2.23604 0,1.6002 0.6858,2.58906 0.6858,0.98885 1.8034,0.986 0.8382,-0.002 1.3716,-0.4861 0.5334,-0.50936 1.016,-1.12019 0.508,-0.6109 1.0668,-1.09492 0.5842,-0.50949 1.4732,-0.51176 1.3462,-0.003 2.0828,1.26469 0.762,1.24266 0.762,3.47786 0,4.0894 -2.5908,6.07721 -2.5908,2.0132 -7.5438,2.02583 -1.5748,0.004 -2.6924,-0.24713 -1.1176,-0.22575 -1.8288,-0.75734 -0.7112,-0.50619 -1.0668,-1.34348 -0.3302,-0.83736 -0.3556,-2.03109 v -0.254 q 0,-0.9652 0.1524,-2.00699 0.1524,-1.04179 0.3048,-2.10898 0.1778,-1.09265 0.3302,-2.18524 0.1524,-1.09259 0.1524,-2.10859 0,-1.016 -0.2032,-1.87908 -0.1778,-0.88855 -0.4064,-1.72617 -0.2032,-0.83768 -0.4064,-1.67536 -0.1778,-0.86315 -0.1778,-1.80295 z m 21.38678,2.00287 q 0.2032,-5.2e-4 0.3302,-0.45804 0.1524,-0.48299 0.3302,-1.19464 0.1778,-0.73706 0.4064,-1.55044 0.2286,-0.83878 0.5588,-1.55082 0.3556,-0.73751 0.8382,-1.19594 0.508,-0.4839 1.2192,-0.48571 0.6604,-0.002 1.2446,0.20003 0.6096,0.20164 1.0922,0.63221 0.4826,0.40517 0.762,1.01406 0.2794,0.58349 0.2794,1.39629 0,0.7874 -0.3302,1.52484 -0.3048,0.71198 -0.762,1.42434 -0.4572,0.71237 -1.016,1.42499 -0.5588,0.71263 -1.016,1.47579 -0.4572,0.76317 -0.7874,1.60221 -0.3048,0.81358 -0.3048,1.75338 0,0.889 0.381,1.70083 0.381,0.81183 0.8382,1.59806 0.4826,0.78617 0.8636,1.5726 0.381,0.78643 0.381,1.65003 0,0.9906 -0.4318,1.6775 -0.4318,0.7123 -1.1176,1.14585 -0.6858,0.45895 -1.5494,0.66435 -0.8636,0.2054 -1.7272,0.2076 -0.7874,0.002 -1.6764,-0.19892 -0.889,-0.17554 -1.651,-0.60539 -0.762,-0.42986 -1.27,-1.19057 -0.4826,-0.73537 -0.4826,-1.82757 0,-0.6096 0.381,-1.37257 0.381,-0.78837 0.8382,-1.62773 0.4572,-0.83937 0.8382,-1.65314 0.381,-0.83917 0.381,-1.49957 0,-0.8636 -0.381,-1.65003 -0.381,-0.81183 -0.9652,-1.54694 -0.5842,-0.76051 -1.2446,-1.47003 -0.6604,-0.70951 -1.2446,-1.41922 -0.5842,-0.70971 -0.9652,-1.41994 -0.381,-0.71023 -0.381,-1.47223 0,-0.7366 0.3556,-1.34711 0.3556,-0.6359 0.889,-1.11986 0.5334,-0.48396 1.1684,-0.73958 0.6604,-0.28109 1.2192,-0.28251 0.7366,-0.002 1.2446,0.45402 0.508,0.45591 0.8382,1.16627 0.3556,0.68489 0.5842,1.49711 0.2286,0.78681 0.381,1.49763 0.1778,0.68534 0.3048,1.14222 0.1524,0.45681 0.3556,0.45629 z"
       id="text2"
       style="font-size:25.4px;font-family:'Super Funky';-inkscape-font-specification:'Super Funky, Normal';fill:#960200;stroke:#e8aa00;stroke-width:2.365"
       aria-label="Jolly" /></g></svg>
