<?xml version="1.0" encoding="UTF-8" standalone="no"?>
<!-- Created with Inkscape (http://www.inkscape.org/) -->

<svg
   width="53.837029mm"
   height="67.240387mm"
   viewBox="0 0 53.837029 67.240387"
   version="1.1"
   id="svg1"
   xml:space="preserve"
   xmlns="http://www.w3.org/2000/svg"
   xmlns:svg="http://www.w3.org/2000/svg"><defs
     id="defs1" /><g
     id="layer5"
     transform="translate(-7.6417519,-44.644059)"><g
       id="g32"><path
         style="fill:none;fill-opacity:1;stroke:#241e4e;stroke-width:2.109;stroke-linecap:round;stroke-linejoin:round;stroke-dasharray:none;stroke-opacity:0.995318"
         d="m 36.349187,106.6495 c -2.34166,0.33282 -5.26011,-0.19983 -5.90457,2.36182 0.0411,2.66499 7.9301,1.67107 8.56163,1.47615"
         id="path11-1-6" /><path
         style="fill:#960200;fill-opacity:1;stroke:#241e4e;stroke-width:1.96314;stroke-linecap:round;stroke-dasharray:none;stroke-opacity:1"
         d="m 28.181917,96.705221 -0.0834,9.642639"
         id="path10-92" /><path
         style="fill:#960200;fill-opacity:1;stroke:#241e4e;stroke-width:1.96314;stroke-linecap:round;stroke-dasharray:none;stroke-opacity:1"
         d="m 36.591037,96.725701 -0.0834,9.642639"
         id="path10-5-2" /><path
         style="fill:none;fill-opacity:1;stroke:#241e4e;stroke-width:2.109;stroke-linecap:round;stroke-linejoin:round;stroke-dasharray:none;stroke-opacity:0.995318"
         d="m 27.918837,106.72995 c -2.34166,0.33282 -4.96489,-0.27364 -6.05218,2.36182 1.0086,2.72352 6.88839,1.33718 6.79025,1.54996"
         id="path11-4" /><path
         style="fill:none;fill-opacity:1;stroke:#241e4e;stroke-width:2.109;stroke-linecap:round;stroke-linejoin:round;stroke-dasharray:none;stroke-opacity:0.995318"
         d="m 19.209597,74.623841 c -10.5397301,21.07319 1.45511,31.974479 26.8658,25.684879"
         id="path12-77" /><path
         style="fill:none;fill-opacity:1;stroke:#241e4e;stroke-width:2.109;stroke-linecap:round;stroke-linejoin:round;stroke-dasharray:none;stroke-opacity:0.957537"
         d="m 20.194417,84.066681 c -0.23485,1.4874 -0.33285,2.93502 0.24381,3.34293 0.59194,0.47858 2.15354,-0.73474 3.15021,-1.31332 0.62457,0.75483 1.18048,2.08198 1.83285,2.13416 1.0177,0.0261 1.77723,-1.76327 2.4296,-2.38954 0.9916,0.4958 2.39422,1.5326 3.0205,1.45431 0.41751,-0.0261 1.03676,-1.89694 1.06285,-3.43653"
         id="path13-5" /><path
         style="fill:#ffd046;fill-opacity:1;stroke:#241e4e;stroke-width:2.109;stroke-linecap:round;stroke-linejoin:round;stroke-dasharray:none;stroke-opacity:1"
         d="m 41.720777,74.992871 c 0,0 7.60214,-2.65706 15.27808,6.42122 5.31412,8.93067 2.80467,21.773109 2.80467,21.773109 0,0 -15.05666,2.14041 -22.14215,-12.251979 -3.91178,-13.21148 4.0594,-15.94235 4.0594,-15.94235 z"
         id="path14-4" /><path
         style="fill:none;fill-opacity:1;stroke:#241e4e;stroke-width:2.109;stroke-linecap:round;stroke-linejoin:round;stroke-dasharray:none;stroke-opacity:1"
         d="m 37.661387,90.713791 c 3.47077,-7.70643 9.76607,-11.0394 19.33747,-9.2997"
         id="path15-8" /><path
         style="fill:none;fill-opacity:1;stroke:#241e4e;stroke-width:2.109;stroke-linecap:round;stroke-linejoin:round;stroke-dasharray:none;stroke-opacity:1"
         d="m 53.160887,77.723741 c -4.06927,-14.60871 5.2417,-15.74266 -0.22142,-23.17545 2.01174,-2.27532 3.39174,-3.82544 1.47614,-8.04498 -1.15774,1.76708 -3.20576,3.66802 -4.94508,3.69035 -10.89022,-6.67925 -20.51993,-6.87942 -29.44905,6.05219"
         id="path16-12" /><path
         style="fill:#ffd046;fill-opacity:1;stroke:#241e4e;stroke-width:2.109;stroke-linecap:round;stroke-linejoin:round;stroke-dasharray:none;stroke-opacity:1"
         d="m 9.3194369,74.107181 c -2.60574,-7.62778 3.2478701,-14.56249 10.4806201,-17.86133 11.305,-0.43301 11.03341,9.19297 8.34021,15.4257 -5.36238,-1.91259 -14.6403,-7.91059 -18.8208301,2.43563 z"
         id="path17-89" /><path
         style="fill:none;fill-opacity:1;stroke:#241e4e;stroke-width:2.109;stroke-linecap:round;stroke-linejoin:round;stroke-dasharray:none;stroke-opacity:1"
         d="m 15.224007,69.383521 c 4.5411,8.32896 8.76512,6.36408 12.91625,2.21422"
         id="path18-36" /><path
         style="fill:#960200;fill-opacity:1;stroke:#241e4e;stroke-width:0.58832;stroke-linecap:round;stroke-linejoin:round;stroke-dasharray:none;stroke-opacity:1"
         d="m 56.482207,102.18247 c -3.53008,-0.27897 -6.23959,-1.00713 -8.93066,-2.400039 -1.82347,-0.94383 -3.28383,-2.01522 -4.76263,-3.49409 -1.40374,-1.40382 -2.56114,-2.94476 -3.57647,-4.76168 l -0.39128,-0.70019 0.37858,-0.74461 c 0.78069,-1.53551 1.6304,-2.73859 2.77936,-3.9352 1.99321,-2.07588 4.37849,-3.32544 7.34381,-3.84716 1.65683,-0.2915 4.21632,-0.28668 6.3961,0.012 l 0.60224,0.0825 0.4788,1.0046 c 1.21391,2.54699 1.92449,5.21045 2.306,8.64364 0.15814,1.42307 0.2221,5.09132 0.11517,6.60574 -0.11939,1.691079 -0.30934,3.382899 -0.38947,3.468939 -0.0674,0.0724 -1.69001,0.11759 -2.34955,0.0655 z"
         id="path21-21" /><path
         style="fill:#ffd046;fill-opacity:1;stroke:#ffd046;stroke-width:0.58832;stroke-linecap:round;stroke-linejoin:round;stroke-dasharray:none;stroke-opacity:1"
         d="m 21.350007,74.024941 c -0.58784,-0.0941 -1.50556,-0.57419 -2.152,-1.12577 -0.66355,-0.56617 -1.61348,-1.73064 -2.25798,-2.76794 -0.25371,-0.40834 -0.46129,-0.76506 -0.46129,-0.79271 0,-0.0276 0.40686,-0.0319 0.90413,-0.01 1.86104,0.0838 3.60596,0.59146 7.30691,2.12568 0.72054,0.2987 1.31008,0.56784 1.31008,0.5981 0,0.0828 -1.07406,0.88081 -1.65538,1.22992 -0.59823,0.35927 -1.14622,0.57663 -1.81356,0.71935 -0.53403,0.11421 -0.60239,0.11553 -1.18091,0.0229 z"
         id="path24-51" /><path
         style="opacity:1;fill:#241e4e;fill-opacity:0;stroke:#241e4e;stroke-width:2.109;stroke-linecap:round;stroke-linejoin:round;stroke-dasharray:none;stroke-opacity:1"
         d="m 33.914389,64.027708 c 1.759318,1.300325 3.877136,0.951555 6.125993,0"
         id="path29" /><path
         style="opacity:1;fill:#aea897;fill-opacity:1;stroke:#241e4e;stroke-width:3.1446;stroke-linecap:round;stroke-linejoin:round;stroke-dasharray:none;stroke-opacity:1"
         d="m 114.40605,381.22072 c -0.75942,-0.0759 -1.94799,-0.23124 -2.64127,-0.34519 l -1.26051,-0.20717 -0.12025,-8.5029 -0.12026,-8.50289 -1.10688,-0.95137 c -1.5011,-1.29021 -3.78066,-1.29024 -5.2818,-6e-5 l -1.10689,0.95132 -0.12125,7.88475 -0.12124,7.88474 -2.43254,-0.56747 C 90.946726,376.73076 81.479554,371.95803 75.583638,366.50836 71.02948,362.2989 66.708736,355.52604 64.745245,349.51894 59.743726,334.2173 62.821121,313.31646 73.524464,289.89285 l 1.38276,-3.02609 1.774707,0.53411 c 3.183833,0.9582 6.883417,1.10135 10.306117,0.39881 6.051753,-1.24218 11.566612,-4.45107 19.197242,-11.17016 l 3.84012,-3.38137 1.54584,-4.16948 c 3.43388,-9.2619 4.6242,-15.74778 4.56629,-24.88093 -0.0388,-6.11374 -0.16258,-7.35292 -1.08193,-10.82816 -3.56224,-13.46565 -12.66731,-21.52814 -27.274131,-24.15109 -1.955226,-0.3511 -3.618919,-0.69185 -3.697095,-0.75723 -0.680041,-0.56872 13.114838,-15.05359 17.500296,-18.37563 10.73036,-8.12838 19.77686,-11.87498 31.26441,-12.94813 13.54453,-1.26531 29.91907,3.44105 47.80576,13.74032 4.40762,2.53793 5.11675,2.82346 7.0123,2.82346 3.9942,0 8.57509,-2.20382 13.72477,-6.60286 3.32288,-2.83851 3.35546,-2.82057 3.35546,1.84807 0,2.72174 -0.15589,3.37945 -1.37157,5.78667 -0.75437,1.49374 -2.70716,4.28875 -4.33954,6.21112 -3.85254,4.53692 -3.90204,5.18516 -0.77293,10.12112 2.90944,4.58947 4.15331,8.20682 4.17642,12.1456 0.0215,3.66632 -0.53849,5.92428 -3.44517,13.89143 -2.70156,7.40494 -3.87283,11.23469 -4.94501,16.16889 -1.54233,7.09789 -1.37648,23.97924 0.30125,30.66386 0.21106,0.84093 0.0617,0.80892 -3.07401,-0.65902 -7.71969,-3.6138 -14.86263,-5.23178 -23.02103,-5.21459 -8.18424,0.0172 -12.69681,1.09359 -17.0813,4.07425 -9.33476,6.34598 -15.04275,16.4052 -16.6772,29.39034 -1.27839,10.1564 1.27053,28.27629 5.03772,35.81235 5.01774,10.03773 13.67984,21.02332 21.7286,27.55701 1.65983,1.34739 2.30999,2.09991 1.97252,2.28311 -0.87024,0.47241 -19.07672,3.51736 -21.03114,3.51736 -0.10103,0 -0.18933,-3.77244 -0.19623,-8.3832 -0.0131,-8.77825 -0.0827,-9.1605 -1.83541,-10.09403 -1.51159,-0.80507 -3.24548,-0.55475 -4.44146,0.64123 l -1.10016,1.10016 -0.29161,8.76243 -0.29161,8.76242 -9.13085,-0.0631 c -5.02197,-0.0347 -9.75219,-0.12524 -10.51161,-0.20114 z M 99.766646,336.65627 c 1.425804,-0.71052 2.759454,-1.85692 4.219744,-3.62729 1.1743,-1.42366 2.13508,-2.71895 2.13508,-2.87843 0,-0.15948 1.73116,0.602 3.84701,1.69218 5.77276,2.97439 8.33762,2.9638 10.86924,-0.0449 2.27738,-2.70651 4.07773,-10.04327 3.86048,-15.73219 -0.0193,-0.50489 -0.55398,-1.4369 -1.18822,-2.07114 -1.58051,-1.58051 -3.85325,-1.60843 -5.55892,-0.0683 -1.0654,0.96201 -1.24179,1.44396 -1.55736,4.25536 -0.33081,2.9471 -1.13828,6.88936 -1.4111,6.88936 -0.0653,0 -1.9518,-1.06516 -4.19214,-2.36702 -6.19229,-3.59835 -7.23577,-3.33965 -11.770052,2.91799 -1.193373,1.64694 -2.260683,2.99559 -2.3718,2.997 -0.111117,10e-4 -1.153247,-1.43563 -2.315844,-3.19342 -2.268877,-3.43043 -3.942462,-4.59544 -5.896889,-4.10491 -0.552413,0.13865 -2.662352,1.24148 -4.688752,2.45074 -2.026399,1.20926 -3.786718,2.0963 -3.911819,1.9712 -0.125101,-0.1251 -0.01341,-2.11095 0.248208,-4.413 0.376674,-3.31449 0.37363,-4.43188 -0.01462,-5.36921 -1.194874,-2.88468 -5.86794,-3.09382 -7.298897,-0.32665 -0.762715,1.47492 -1.498902,7.96094 -1.23241,10.85787 0.547173,5.94807 3.718551,9.05868 8.470074,8.30777 0.801539,-0.12667 2.941264,-0.97932 4.754945,-1.89477 3.005769,-1.51717 3.331623,-1.60368 3.682033,-0.97753 0.48628,0.86893 2.635664,3.374 3.671963,4.2796 1.923194,1.68063 4.836168,1.85184 7.650051,0.44963 z m 43.267084,-87.7445 c 2.73953,-0.48511 8.04925,-2.15328 10.05456,-3.15886 2.63595,-1.32184 3.21094,-4.77031 1.1209,-6.72269 -1.61397,-1.50767 -2.65372,-1.46626 -7.78701,0.31018 -3.65534,1.26497 -4.69245,1.45793 -7.95141,1.47939 -3.61282,0.0238 -3.84417,-0.0286 -6.42426,-1.45472 -3.33022,-1.84073 -4.90522,-1.92004 -6.6778,-0.33625 -1.04501,0.93372 -1.27939,1.43652 -1.27939,2.7446 0,2.07007 1.00329,3.39579 3.7426,4.94535 4.12249,2.332 9.7954,3.15037 15.20181,2.193 z"
         id="path30"
         transform="scale(0.26458333)" /></g></g></svg>
