<?xml version="1.0" encoding="UTF-8" standalone="no"?>
<!-- Created with Inkscape (http://www.inkscape.org/) -->

<svg
   width="96.7995mm"
   height="53.352047mm"
   viewBox="0 0 96.7995 53.352047"
   version="1.1"
   id="svg1"
   xml:space="preserve"
   xmlns="http://www.w3.org/2000/svg"
   xmlns:svg="http://www.w3.org/2000/svg"><defs
     id="defs1" /><g
     id="layer8"
     transform="translate(109.56406,-159.59562)"><g
       id="g152"
       transform="matrix(0.98105854,0,0,0.97861691,-56.528877,15.541213)"><path
         style="opacity:1;fill:#000000;fill-opacity:0;stroke:#241e4e;stroke-width:2;stroke-linecap:round;stroke-linejoin:round;stroke-dasharray:none;stroke-opacity:1"
         id="path151"
         d="m -48.640156,196.85242 a 2.4294052,2.4648762 0 0 1 -0.582691,3.41781 2.4294052,2.4648762 0 0 1 -3.374233,-0.55734 2.4294052,2.4648762 0 0 1 0.515909,-3.42885 2.4294052,2.4648762 0 0 1 3.384443,0.48948" /><path
         style="fill:#000000;fill-opacity:0;stroke:#241e4e;stroke-width:2;stroke-linecap:round;stroke-linejoin:round;stroke-dasharray:none;stroke-opacity:1"
         id="path152"
         d="m -33.813352,184.07444 a 4.7897778,4.6816607 0 0 1 -1.148825,6.49162 4.7897778,4.6816607 0 0 1 -6.652585,-1.05859 4.7897778,4.6816607 0 0 1 1.017157,-6.51258 4.7897778,4.6816607 0 0 1 6.672717,0.9297" /><path
         style="fill:#000000;fill-opacity:0;stroke:#241e4e;stroke-width:3.42555;stroke-linecap:round;stroke-linejoin:round;stroke-dasharray:none;stroke-opacity:1"
         id="path152-4"
         d="m 36.363181,157.91488 a 36.399059,20.877718 0 0 1 -8.730294,28.9492 36.399059,20.877718 0 0 1 -50.55513,-4.72078 36.399059,20.877718 0 0 1 7.729705,-29.04264 36.399059,20.877718 0 0 1 50.708117,4.14597" /></g></g></svg>
