<?xml version="1.0" encoding="UTF-8" standalone="no"?>
<!-- Created with Inkscape (http://www.inkscape.org/) -->

<svg
   width="53.837032mm"
   height="67.240387mm"
   viewBox="0 0 53.837032 67.240387"
   version="1.1"
   id="svg1"
   xml:space="preserve"
   xmlns="http://www.w3.org/2000/svg"
   xmlns:svg="http://www.w3.org/2000/svg"><defs
     id="defs1" /><g
     id="layer1"
     transform="translate(-83.495773,-202.73419)"><g
       id="g35"><path
         style="fill:none;fill-opacity:1;stroke:#e5e5e5;stroke-width:2.109;stroke-linecap:round;stroke-linejoin:round;stroke-dasharray:none;stroke-opacity:0.995318"
         d="m 112.20321,264.73963 c -2.34166,0.33282 -5.26011,-0.19983 -5.90457,2.36182 0.0411,2.66499 7.9301,1.67107 8.56163,1.47615"
         id="path11-1" /><path
         style="opacity:1;fill:#960200;fill-opacity:1;stroke:#e5e5e5;stroke-width:1.96314;stroke-linecap:round;stroke-dasharray:none;stroke-opacity:1"
         d="m 104.03594,254.79535 -0.0834,9.64264"
         id="path10" /><path
         style="fill:#960200;fill-opacity:1;stroke:#e5e5e5;stroke-width:1.96314;stroke-linecap:round;stroke-dasharray:none;stroke-opacity:1"
         d="m 112.44506,254.81583 -0.0834,9.64264"
         id="path10-5" /><path
         style="opacity:1;fill:none;fill-opacity:1;stroke:#e5e5e5;stroke-width:2.109;stroke-linecap:round;stroke-linejoin:round;stroke-dasharray:none;stroke-opacity:0.995318"
         d="m 103.77286,264.82008 c -2.34166,0.33282 -4.964888,-0.27364 -6.052184,2.36182 1.0086,2.72352 6.888394,1.33718 6.790254,1.54996"
         id="path11" /><path
         style="opacity:1;fill:none;fill-opacity:1;stroke:#e5e5e5;stroke-width:2.109;stroke-linecap:round;stroke-linejoin:round;stroke-dasharray:none;stroke-opacity:0.995318"
         d="m 95.063616,232.71397 c -10.53973,21.07319 1.455106,31.97448 26.865804,25.68488"
         id="path12" /><path
         style="opacity:1;fill:none;fill-opacity:1;stroke:#e5e5e5;stroke-width:2.109;stroke-linecap:round;stroke-linejoin:round;stroke-dasharray:none;stroke-opacity:0.957537"
         d="m 96.048436,242.15681 c -0.234853,1.4874 -0.332847,2.93502 0.243807,3.34293 0.591944,0.47858 2.153545,-0.73474 3.150211,-1.31332 0.624576,0.75483 1.180486,2.08198 1.832856,2.13416 1.0177,0.0261 1.77723,-1.76327 2.4296,-2.38954 0.9916,0.4958 2.39422,1.5326 3.0205,1.45431 0.41751,-0.0261 1.03676,-1.89694 1.06285,-3.43653"
         id="path13" /><path
         style="opacity:1;fill:#ffd046;fill-opacity:1;stroke:#e5e5e5;stroke-width:2.109;stroke-linecap:round;stroke-linejoin:round;stroke-dasharray:none;stroke-opacity:1"
         d="m 117.5748,233.083 c 0,0 7.60214,-2.65706 15.27808,6.42122 5.31412,8.93067 2.80467,21.77311 2.80467,21.77311 0,0 -15.05666,2.14041 -22.14215,-12.25198 -3.91178,-13.21148 4.0594,-15.94235 4.0594,-15.94235 z"
         id="path14" /><path
         style="opacity:1;fill:none;fill-opacity:1;stroke:#e5e5e5;stroke-width:2.109;stroke-linecap:round;stroke-linejoin:round;stroke-dasharray:none;stroke-opacity:1"
         d="m 113.51541,248.80392 c 3.47077,-7.70643 9.76607,-11.0394 19.33747,-9.2997"
         id="path15" /><path
         style="opacity:1;fill:none;fill-opacity:1;stroke:#e5e5e5;stroke-width:2.109;stroke-linecap:round;stroke-linejoin:round;stroke-dasharray:none;stroke-opacity:1"
         d="m 129.01491,235.81387 c -4.06927,-14.60871 5.2417,-15.74266 -0.22142,-23.17545 2.01174,-2.27532 3.39174,-3.82544 1.47614,-8.04498 -1.15774,1.76708 -3.20576,3.66802 -4.94508,3.69035 -10.89022,-6.67925 -20.51993,-6.87942 -29.449054,6.05219"
         id="path16" /><path
         style="opacity:1;fill:none;fill-opacity:1;stroke:#e5e5e5;stroke-width:2.109;stroke-linecap:round;stroke-linejoin:round;stroke-dasharray:none;stroke-opacity:1"
         d="m 91.07803,227.47365 c 4.541094,8.32896 8.765119,6.36408 12.91625,2.21422"
         id="path18" /><ellipse
         style="opacity:1;fill:none;fill-opacity:1;stroke:#e5e5e5;stroke-width:2.109;stroke-linecap:round;stroke-linejoin:round;stroke-dasharray:none;stroke-opacity:1"
         id="path19"
         cx="114.88084"
         cy="219.98222"
         rx="5.0557904"
         ry="5.1295972" /><path
         style="opacity:1;fill:none;fill-opacity:1;stroke:#e5e5e5;stroke-width:2.109;stroke-linecap:round;stroke-linejoin:round;stroke-dasharray:none;stroke-opacity:1"
         id="path20"
         d="m 113.73683,221.64288 a 0.92258948,1.6975646 0 0 1 -0.91277,1.69747 0.92258948,1.6975646 0 0 1 -0.9322,-1.66131 0.92258948,1.6975646 0 0 1 0.89291,-1.73285 0.92258948,1.6975646 0 0 1 0.95122,1.6244 l -0.92175,0.0723 z" /><path
         style="opacity:1;fill:#960200;fill-opacity:1;stroke:#e5e5e5;stroke-width:2.22357;stroke-linecap:round;stroke-linejoin:round;stroke-dasharray:none;stroke-opacity:1"
         d="m 500.16844,983.70747 c -13.34204,-1.05438 -23.58273,-3.80648 -33.7537,-9.07101 -6.89186,-3.56725 -12.41133,-7.61659 -18.00047,-13.20601 -5.3055,-5.30577 -9.67992,-11.12981 -13.5174,-17.99691 l -1.47884,-2.64636 1.43086,-2.81431 c 2.95063,-5.80349 6.16215,-10.35056 10.50466,-14.87317 7.5334,-7.84586 16.54863,-12.56861 27.75614,-14.54045 6.26202,-1.10174 15.93571,-1.08351 24.17423,0.0455 l 2.27618,0.31194 1.80963,3.7969 c 4.58802,9.62642 7.27367,19.69304 8.71562,32.66887 0.5977,5.37854 0.83942,19.24278 0.43529,24.96658 -0.45127,6.39149 -1.16919,12.78576 -1.47202,13.11094 -0.25476,0.27355 -6.38745,0.44443 -8.88018,0.24744 z"
         id="path21"
         transform="scale(0.26458333)" /><path
         style="opacity:1;fill:#aea897;fill-opacity:1;stroke:#e5e5e5;stroke-width:2.22357;stroke-linecap:round;stroke-linejoin:round;stroke-dasharray:none;stroke-opacity:1"
         d="m 402.11534,978.83404 c -1.53426,-0.12325 -3.32307,-0.30167 -3.97513,-0.39649 l -1.18556,-0.1724 v -8.28952 c 0,-7.35394 -0.0537,-8.36737 -0.47537,-8.97924 -1.4937,-2.16722 -4.29394,-2.41396 -6.09339,-0.53692 l -0.82358,0.85909 -0.17895,6.04953 c -0.0984,3.32723 -0.19257,6.84805 -0.20922,7.82404 l -0.0303,1.77452 -1.02722,-0.19271 c -2.13593,-0.4007 -7.61064,-2.11912 -10.69405,-3.35668 -6.56554,-2.63515 -11.54993,-5.83943 -16.05196,-10.3192 -5.84848,-5.81956 -9.30101,-12.11803 -11.09879,-20.24757 -3.12547,-14.13336 -0.45379,-31.06688 8.11624,-51.44188 1.19993,-2.85281 2.97048,-6.68664 3.24593,-7.02853 0.0224,-0.0278 0.9176,0.19844 1.98937,0.5027 2.60233,0.73878 6.54675,0.97041 9.20971,0.54083 6.20431,-1.00086 12.96259,-4.85451 20.02599,-11.41905 1.50638,-1.39999 2.84941,-2.54544 2.98453,-2.54544 0.75709,0 4.18566,-9.47574 5.44147,-15.03893 2.8161,-12.47513 2.13316,-23.66251 -1.96709,-32.2233 -3.59259,-7.50086 -10.11658,-13.09163 -18.54282,-15.89036 -1.80773,-0.60043 -3.38128,-0.94964 -9.29311,-2.06238 l -1.06391,-0.20026 2.45818,-3.06851 c 3.08039,-3.84523 9.94678,-10.9061 13.61744,-14.00314 6.02425,-5.08284 13.60507,-9.48462 20.24963,-11.75791 13.77784,-4.71377 28.87161,-3.49153 46.00247,3.72514 3.78934,1.59632 10.9999,5.24095 14.92415,7.54351 5.06642,2.97273 5.07672,2.97676 7.0814,2.76893 2.4472,-0.25371 4.24955,-0.82391 6.83158,-2.16131 2.51129,-1.30076 5.44985,-3.46727 7.76857,-5.72754 0.87819,-0.85605 1.6525,-1.50066 1.72069,-1.43246 0.0682,0.0682 0.26556,1.15795 0.43859,2.42169 0.67958,4.96333 -0.70805,8.28013 -6.09331,14.56464 -3.43288,4.00611 -3.52657,4.84618 -0.96797,8.67946 5.47817,8.20742 6.09611,13.42047 2.7234,22.97515 -5.58211,15.81374 -6.69413,19.99318 -7.39053,27.77664 -0.57287,6.40279 0.016,16.86635 1.29894,23.08059 l 0.18654,0.90358 -2.6146,-1.21803 c -8.32513,-3.87831 -15.54709,-5.55254 -23.95476,-5.55331 -7.32118,-6.6e-4 -11.49362,0.93184 -15.74858,3.51968 -7.57064,4.60443 -13.14325,12.08022 -16.02923,21.50362 -1.83403,5.98855 -2.48731,15.91568 -1.57126,23.87649 0.91576,7.95821 2.98173,16.55742 4.88961,20.35201 2.47316,4.91887 5.691,9.93903 9.66146,15.07289 2.85074,3.68606 9.22558,10.2197 12.59453,12.90827 1.77359,1.41541 2.19143,1.87436 1.81321,1.9916 -1.13229,0.35101 -11.41738,2.12908 -15.41563,2.66503 -2.3781,0.31877 -4.72657,0.64485 -5.21881,0.72462 l -0.89499,0.14504 -0.0814,-8.51364 -0.0813,-8.51365 -0.91197,-0.91158 c -0.83916,-0.83881 -1.05398,-0.91159 -2.69054,-0.91159 -1.3864,0 -1.91434,0.12287 -2.39432,0.55725 -1.263,1.143 -1.32745,1.57593 -1.5421,10.35887 l -0.20543,8.40551 -1.25771,0.17239 c -1.72677,0.23668 -14.07726,0.14509 -17.49877,-0.12978 z m -15.77329,-44.60352 c 1.57374,-0.80286 3.9488,-3.05145 5.38389,-5.09721 0.61886,-0.8822 1.25159,-1.604 1.40607,-1.604 0.15448,0 1.23468,0.54751 2.40045,1.21669 1.16577,0.66917 2.74723,1.49856 3.51436,1.84308 1.68207,0.75543 4.68759,1.04502 6.07917,0.58576 2.60268,-0.85896 4.74456,-5.15445 5.90461,-11.84154 0.90213,-5.20027 0.44923,-7.33353 -1.80188,-8.48741 -1.46477,-0.75081 -2.93968,-0.66127 -4.22892,0.25675 -1.1339,0.80741 -1.53613,1.75742 -1.75817,4.1526 -0.23118,2.49362 -1.20374,6.90264 -1.57296,7.13083 -0.14402,0.089 -1.79988,-0.72469 -3.6797,-1.80824 -1.87982,-1.08354 -3.93982,-2.17512 -4.57779,-2.42572 -2.40201,-0.94353 -4.09255,0.0853 -7.11551,4.33022 -1.83188,2.5724 -2.72117,3.6522 -3.00782,3.6522 -0.0988,0 -1.00866,-1.22392 -2.02188,-2.71982 -2.58741,-3.82001 -3.17905,-4.33196 -5.16301,-4.4676 -1.57775,-0.10787 -1.65733,-0.0766 -4.81228,1.89244 -1.7644,1.10117 -3.5532,2.18136 -3.97512,2.40042 l -0.76713,0.39828 v -1.87122 c 0,-1.02918 0.14298,-2.98618 0.31774,-4.34889 0.39321,-3.06605 0.0924,-4.33224 -1.27716,-5.3769 -2.43761,-1.85925 -5.73668,-0.73142 -6.54539,2.23765 -0.62652,2.30016 -0.99688,8.37503 -0.65402,10.72743 1.10463,7.57883 6.50424,9.36423 14.30488,4.72995 1.07917,-0.64112 1.99637,-1.11752 2.03822,-1.05866 2.95726,4.15844 4.09792,5.29925 6.01733,6.01815 1.40493,0.52621 4.08583,0.30316 5.59202,-0.46524 z m 53.58896,-80.03629 c 8.20773,-2.10278 14.47698,-8.42992 16.75251,-16.90724 0.46758,-1.74192 0.59904,-3.02746 0.59904,-5.85808 0,-2.83062 -0.13146,-4.11616 -0.59904,-5.85808 -2.31151,-8.61136 -8.74687,-14.98553 -17.22255,-17.05879 -2.58251,-0.63172 -7.94882,-0.63172 -10.53134,0 -8.47568,2.07326 -14.91104,8.44743 -17.22255,17.05879 -0.46758,1.74192 -0.59904,3.02746 -0.59904,5.85808 0,2.83062 0.13146,4.11616 0.59904,5.85808 2.5057,9.33478 9.77888,15.95116 19.1516,17.42213 2.30911,0.3624 6.59816,0.11897 9.07233,-0.51489 z"
         id="path22"
         transform="scale(0.26458333)" /><path
         style="opacity:1;fill:#ffd046;fill-opacity:1;stroke:#ffd046;stroke-width:2.22357;stroke-linecap:round;stroke-linejoin:round;stroke-dasharray:none;stroke-opacity:1"
         d="m 367.38529,877.28531 c -2.22174,-0.35569 -5.69028,-2.17017 -8.13352,-4.25486 -2.5079,-2.13986 -6.0982,-6.54101 -8.53411,-10.46151 -0.95891,-1.54333 -1.74347,-2.89157 -1.74347,-2.99608 0,-0.10451 1.53774,-0.12075 3.41721,-0.0361 7.03383,0.31688 13.62883,2.23546 27.61666,8.03407 2.72331,1.12894 4.95147,2.14617 4.95147,2.26052 0,0.31293 -4.05944,3.32905 -6.25654,4.64854 -2.26104,1.35788 -4.33219,2.1794 -6.8544,2.71879 -2.01839,0.43165 -2.27676,0.43666 -4.4633,0.0866 z"
         id="path24"
         transform="scale(0.26458333)" /><path
         style="opacity:1;fill:#ffd046;fill-opacity:1;stroke:#e5e5e5;stroke-width:2.109;stroke-linecap:round;stroke-linejoin:round;stroke-dasharray:none;stroke-opacity:1"
         d="m 85.173459,232.19731 c -2.605742,-7.62778 3.247868,-14.56249 10.480617,-17.86133 11.305004,-0.43301 11.033414,9.19297 8.340214,15.4257 -5.362387,-1.91259 -14.640305,-7.91059 -18.820831,2.43563 z"
         id="path17" /></g></g></svg>
