<?xml version="1.0" encoding="UTF-8" standalone="no"?>
<!-- Created with Inkscape (http://www.inkscape.org/) -->

<svg
   width="53.83704mm"
   height="67.240387mm"
   viewBox="0 0 53.83704 67.240387"
   version="1.1"
   id="svg1"
   xml:space="preserve"
   xmlns="http://www.w3.org/2000/svg"
   xmlns:svg="http://www.w3.org/2000/svg"><defs
     id="defs1" /><g
     id="layer9"
     transform="translate(-151.97076,-204.3301)"><g
       id="g36"
       style="stroke:#1d1d1d;stroke-opacity:1"><path
         style="fill:none;fill-opacity:1;stroke:#1d1d1d;stroke-width:2.109;stroke-linecap:round;stroke-linejoin:round;stroke-dasharray:none;stroke-opacity:1"
         d="m 180.6782,266.33554 c -2.34166,0.33282 -5.26011,-0.19983 -5.90457,2.36182 0.0411,2.66499 7.9301,1.67107 8.56163,1.47615"
         id="path11-1-4" /><path
         style="fill:#960200;fill-opacity:1;stroke:#1d1d1d;stroke-width:1.96314;stroke-linecap:round;stroke-dasharray:none;stroke-opacity:1"
         d="m 172.51093,256.39126 -0.0834,9.64264"
         id="path10-4" /><path
         style="fill:#960200;fill-opacity:1;stroke:#1d1d1d;stroke-width:1.96314;stroke-linecap:round;stroke-dasharray:none;stroke-opacity:1"
         d="m 180.92005,256.41174 -0.0834,9.64264"
         id="path10-5-4" /><path
         style="fill:none;fill-opacity:1;stroke:#1d1d1d;stroke-width:2.109;stroke-linecap:round;stroke-linejoin:round;stroke-dasharray:none;stroke-opacity:1"
         d="m 172.24785,266.41599 c -2.34166,0.33282 -4.96489,-0.27364 -6.05219,2.36182 1.0086,2.72352 6.8884,1.33718 6.79026,1.54996"
         id="path11-7" /><path
         style="fill:none;fill-opacity:1;stroke:#1d1d1d;stroke-width:2.109;stroke-linecap:round;stroke-linejoin:round;stroke-dasharray:none;stroke-opacity:1"
         d="m 163.5386,234.30988 c -10.53973,21.07319 1.45511,31.97448 26.86581,25.68488"
         id="path12-6" /><path
         style="fill:none;fill-opacity:1;stroke:#1d1d1d;stroke-width:2.109;stroke-linecap:round;stroke-linejoin:round;stroke-dasharray:none;stroke-opacity:1"
         d="m 164.52342,243.75272 c -0.23485,1.4874 -0.33285,2.93502 0.24381,3.34293 0.59194,0.47858 2.15354,-0.73474 3.15021,-1.31332 0.62458,0.75483 1.18049,2.08198 1.83286,2.13416 1.0177,0.0261 1.77723,-1.76327 2.4296,-2.38954 0.9916,0.4958 2.39422,1.5326 3.0205,1.45431 0.41751,-0.0261 1.03676,-1.89694 1.06285,-3.43653"
         id="path13-3" /><path
         style="fill:#e8aa00;fill-opacity:1;stroke:#1d1d1d;stroke-width:2.109;stroke-linecap:round;stroke-linejoin:round;stroke-dasharray:none;stroke-opacity:1"
         d="m 186.04979,234.67891 c 0,0 7.60214,-2.65706 15.27808,6.42122 5.31412,8.93067 2.80467,21.77311 2.80467,21.77311 0,0 -15.05666,2.14041 -22.14215,-12.25198 -3.91178,-13.21148 4.0594,-15.94235 4.0594,-15.94235 z"
         id="path14-1" /><path
         style="fill:none;fill-opacity:1;stroke:#1d1d1d;stroke-width:2.109;stroke-linecap:round;stroke-linejoin:round;stroke-dasharray:none;stroke-opacity:1"
         d="m 181.9904,250.39983 c 3.47077,-7.70643 9.76607,-11.0394 19.33747,-9.2997"
         id="path15-7" /><path
         style="fill:none;fill-opacity:1;stroke:#1d1d1d;stroke-width:2.109;stroke-linecap:round;stroke-linejoin:round;stroke-dasharray:none;stroke-opacity:1"
         d="m 197.4899,237.40978 c -4.06927,-14.60871 5.2417,-15.74266 -0.22142,-23.17545 2.01174,-2.27532 3.39174,-3.82544 1.47614,-8.04498 -1.15774,1.76708 -3.20576,3.66802 -4.94508,3.69035 -10.89022,-6.67925 -20.51993,-6.87942 -29.44906,6.05219"
         id="path16-5" /><path
         style="fill:#e8aa00;fill-opacity:1;stroke:#1d1d1d;stroke-width:2.109;stroke-linecap:round;stroke-linejoin:round;stroke-dasharray:none;stroke-opacity:1"
         d="m 153.64844,233.79322 c -2.60574,-7.62778 3.24787,-14.56249 10.48062,-17.86133 11.30501,-0.43301 11.03342,9.19297 8.34022,15.4257 -5.36239,-1.91259 -14.64031,-7.91059 -18.82084,2.43563 z"
         id="path17-9" /><path
         style="fill:none;fill-opacity:1;stroke:#1d1d1d;stroke-width:2.109;stroke-linecap:round;stroke-linejoin:round;stroke-dasharray:none;stroke-opacity:1"
         d="m 159.55302,229.06956 c 4.54109,8.32896 8.76511,6.36408 12.91625,2.21422"
         id="path18-6" /><path
         style="fill:#960200;fill-opacity:1;stroke:#1d1d1d;stroke-width:0.58832;stroke-linecap:round;stroke-linejoin:round;stroke-dasharray:none;stroke-opacity:1"
         d="m 200.81122,261.86851 c -3.53008,-0.27897 -6.2396,-1.00713 -8.93067,-2.40004 -1.82347,-0.94383 -3.28383,-2.01522 -4.76262,-3.49409 -1.40375,-1.40382 -2.56115,-2.94476 -3.57648,-4.76168 l -0.39128,-0.70018 0.37858,-0.74462 c 0.78069,-1.53551 1.63041,-2.73859 2.77936,-3.93519 1.99321,-2.07589 4.37849,-3.32545 7.34381,-3.84717 1.65683,-0.2915 4.21633,-0.28667 6.3961,0.012 l 0.60224,0.0825 0.4788,1.00459 c 1.21391,2.54699 1.92449,5.21045 2.30601,8.64364 0.15814,1.42307 0.22209,5.09132 0.11517,6.60574 -0.1194,1.69108 -0.30935,3.3829 -0.38947,3.46894 -0.0674,0.0724 -1.69002,0.11759 -2.34955,0.0655 z"
         id="path21-7" /><path
         style="fill:#aea897;fill-opacity:1;stroke:#1d1d1d;stroke-width:0.58832;stroke-linecap:round;stroke-linejoin:round;stroke-dasharray:none;stroke-opacity:1"
         d="m 174.868,260.57908 c -0.40594,-0.0326 -0.87923,-0.0798 -1.05175,-0.1049 l -0.31368,-0.0456 v -2.19326 c 0,-1.94573 -0.0142,-2.21387 -0.12578,-2.37576 -0.3952,-0.57341 -1.1361,-0.6387 -1.61221,-0.14206 l -0.2179,0.2273 -0.0473,1.6006 c -0.026,0.88033 -0.051,1.81188 -0.0554,2.07011 l -0.008,0.46951 -0.27179,-0.051 c -0.56513,-0.10601 -2.01364,-0.56068 -2.82946,-0.88812 -1.73714,-0.69721 -3.05592,-1.54501 -4.24708,-2.73029 -1.54741,-1.53975 -2.4609,-3.20622 -2.93656,-5.35716 -0.82695,-3.73946 -0.12006,-8.21978 2.14742,-13.61067 0.31748,-0.7548 0.78594,-1.76917 0.85882,-1.85963 0.006,-0.007 0.24278,0.0525 0.52636,0.13301 0.68853,0.19546 1.73216,0.25675 2.43673,0.14309 1.64156,-0.26481 3.42969,-1.28442 5.29854,-3.02129 0.39857,-0.37041 0.75391,-0.67348 0.78966,-0.67348 0.20031,0 1.10746,-2.50712 1.43972,-3.97905 0.7451,-3.30071 0.5644,-6.26071 -0.52046,-8.52575 -0.95054,-1.9846 -2.67667,-3.46383 -4.90612,-4.20432 -0.47829,-0.15887 -0.89463,-0.25126 -2.4588,-0.54567 l -0.28149,-0.053 0.65039,-0.81188 c 0.81502,-1.01738 2.63175,-2.88557 3.60295,-3.70499 1.59392,-1.34484 3.59967,-2.50948 5.35771,-3.11095 3.64539,-1.24719 7.63895,-0.9238 12.17149,0.98561 1.0026,0.42236 2.91039,1.38667 3.94868,1.99589 1.34049,0.78653 1.34322,0.7876 1.87362,0.73261 0.64749,-0.0671 1.12436,-0.21799 1.80752,-0.57185 0.66445,-0.34416 1.44194,-0.91738 2.05544,-1.51541 0.23235,-0.2265 0.43722,-0.39705 0.45526,-0.37901 0.018,0.018 0.0703,0.30638 0.11605,0.64074 0.1798,1.31322 -0.18734,2.19079 -1.61219,3.85356 -0.90828,1.05995 -0.93307,1.28222 -0.25611,2.29645 1.44943,2.17154 1.61293,3.55083 0.72057,6.07884 -1.47694,4.18405 -1.77116,5.28986 -1.95541,7.34923 -0.15158,1.69407 0.004,4.46256 0.34367,6.10674 l 0.0494,0.23907 -0.69178,-0.32227 c -2.20269,-1.02613 -4.1135,-1.46911 -6.33803,-1.46931 -1.93706,-1.7e-4 -3.04102,0.24655 -4.16681,0.93125 -2.00307,1.21825 -3.47749,3.19622 -4.24107,5.6895 -0.48525,1.58447 -0.6581,4.21102 -0.41573,6.31732 0.2423,2.10561 0.78892,4.38082 1.29371,5.3848 0.65436,1.30145 1.50574,2.6297 2.55626,3.98804 0.75426,0.97527 2.44094,2.70396 3.33231,3.41531 0.46926,0.37449 0.57981,0.49593 0.47974,0.52695 -0.29958,0.0929 -3.02085,0.56331 -4.07872,0.70512 -0.6292,0.0843 -1.25057,0.17061 -1.38081,0.19172 l -0.2368,0.0384 -0.0215,-2.25257 -0.0215,-2.25257 -0.24129,-0.24119 c -0.22203,-0.22194 -0.27886,-0.24119 -0.71187,-0.24119 -0.36682,0 -0.5065,0.0325 -0.6335,0.14744 -0.33417,0.30242 -0.35122,0.41696 -0.40801,2.74078 l -0.0543,2.22396 -0.33277,0.0456 c -0.45688,0.0626 -3.72461,0.0384 -4.62989,-0.0343 z m -4.17335,-11.80135 c 0.41639,-0.21242 1.04479,-0.80736 1.42449,-1.34863 0.16374,-0.23342 0.33115,-0.42439 0.37202,-0.42439 0.0409,0 0.32668,0.14486 0.63512,0.32191 0.30844,0.17705 0.72687,0.3965 0.92984,0.48765 0.44505,0.19987 1.24026,0.2765 1.60845,0.15498 0.68863,-0.22726 1.25533,-1.36378 1.56226,-3.13307 0.23869,-1.37591 0.11886,-1.94033 -0.47675,-2.24563 -0.38755,-0.19865 -0.77779,-0.17496 -1.1189,0.0679 -0.30001,0.21363 -0.40643,0.46499 -0.46518,1.09871 -0.0612,0.65977 -0.31849,1.82633 -0.41618,1.8867 -0.0381,0.0236 -0.47622,-0.19174 -0.97359,-0.47843 -0.49737,-0.28669 -1.04241,-0.5755 -1.2112,-0.6418 -0.63554,-0.24965 -1.08282,0.0226 -1.88265,1.1457 -0.48468,0.68061 -0.71998,0.96631 -0.79582,0.96631 -0.0261,0 -0.26687,-0.32383 -0.53495,-0.71962 -0.68459,-1.01071 -0.84113,-1.14616 -1.36605,-1.18205 -0.41745,-0.0285 -0.4385,-0.0203 -1.27325,0.50071 -0.46683,0.29135 -0.94012,0.57715 -1.05175,0.63511 l -0.20297,0.10538 v -0.4951 c 0,-0.2723 0.0378,-0.79009 0.0841,-1.15064 0.10404,-0.81123 0.0245,-1.14624 -0.33792,-1.42264 -0.64495,-0.49193 -1.51783,-0.19352 -1.7318,0.59205 -0.16576,0.60858 -0.26376,2.21589 -0.17304,2.8383 0.29227,2.00523 1.72091,2.47761 3.78483,1.25146 0.28553,-0.16963 0.52821,-0.29568 0.53928,-0.2801 0.78244,1.10025 1.08424,1.40209 1.59209,1.5923 0.37172,0.13923 1.08104,0.0802 1.47955,-0.1231 z"
         id="path22-8" /><path
         style="fill:#e8aa00;fill-opacity:1;stroke:#1d1d1d;stroke-width:0.58832;stroke-linecap:round;stroke-linejoin:round;stroke-dasharray:none;stroke-opacity:1"
         d="m 165.67901,233.71098 c -0.58784,-0.0941 -1.50555,-0.57419 -2.15199,-1.12576 -0.66355,-0.56617 -1.61349,-1.73065 -2.25799,-2.76794 -0.25371,-0.40834 -0.46129,-0.76507 -0.46129,-0.79272 0,-0.0276 0.40686,-0.0319 0.90414,-0.01 1.86103,0.0838 3.60596,0.59147 7.3069,2.12568 0.72055,0.2987 1.31008,0.56784 1.31008,0.5981 0,0.0828 -1.07406,0.88081 -1.65538,1.22992 -0.59823,0.35928 -1.14622,0.57664 -1.81356,0.71935 -0.53403,0.11421 -0.60239,0.11553 -1.18091,0.0229 z"
         id="path24-5" /><path
         style="opacity:1;fill:#ffd046;fill-opacity:1;stroke:#1d1d1d;stroke-width:2.109;stroke-linecap:round;stroke-linejoin:round;stroke-dasharray:none;stroke-opacity:1"
         d="m 179.01013,217.68257 6.52369,6.5237"
         id="path25" /><path
         style="opacity:1;fill:#ffd046;fill-opacity:1;stroke:#1d1d1d;stroke-width:2.109;stroke-linecap:round;stroke-linejoin:round;stroke-dasharray:none;stroke-opacity:1"
         d="m 186.52542,217.63039 -7.61968,6.78463"
         id="path26" /></g></g></svg>
